<?xml version="1.0" standalone="no"?>
<!DOCTYPE svg PUBLIC "-//W3C//DTD SVG 1.1//EN" "http://www.w3.org/Graphics/SVG/1.1/DTD/svg11.dtd" >
<svg>
<metadata>
Created by FontForge 20090622 at Tue Jul  9 18:35:24 2019
 By deploy user
Copyright (c) 2016 by Tom Chalky. All rights reserved.
</metadata>
<defs>
<font id="Lance-Sans-Regular" horiz-adv-x="245" >
  <font-face 
    font-family="Lance Sans"
    font-weight="400"
    font-stretch="normal"
    units-per-em="1000"
    panose-1="0 0 0 0 0 0 0 0 0 0"
    ascent="800"
    descent="-200"
    x-height="684"
    cap-height="697"
    bbox="6.91111 -185.96 980 885"
    underline-thickness="50"
    underline-position="-50"
    unicode-range="U+000D-U+00A3"
  />
<missing-glyph 
 />
    <glyph glyph-name=".notdef" 
 />
    <glyph glyph-name="NULL" horiz-adv-x="0" 
 />
    <glyph glyph-name="NULL" horiz-adv-x="0" 
 />
    <glyph glyph-name="nonmarkingreturn" unicode="&#xd;" 
 />
    <glyph glyph-name="space" unicode=" " 
 />
    <glyph glyph-name="ampersand" unicode="&#x26;" horiz-adv-x="802" 
d="M179 381q-5 11 -9 18.5l-8 14.5q-11 20 -19 42t-12 47q-8 56 22 105q1 4 2.5 6.5t2.5 6.5q22 41 67 56q34 13 69 17.5t70 2.5h36t34 -2q20 -7 34 -15l24.5 -10.5t22.5 -13.5q20 -20 37 -43.5t25 -50.5q6 -24 3.5 -46t-16.5 -44q-18 -29 -39.5 -54t-53.5 -42
q-4 -2 -7 -5.5l-7 -8.5q14 -19 32 -35.5t38 -31.5q8 5 13.5 12t13.5 13q7 6 13 12.5l11 11.5q15 9 28 2l46 -17.5t47 -16.5q3 -6 7 -11t7 -11q-9 -26 -24 -49l-29 -44q8 -18 22.5 -25.5t28.5 -18.5q11 -11 23 -20.5l25 -19.5q4 -14 -3.5 -25.5t-15.5 -22.5
q-11 -13 -24 -24.5t-26 -24.5q-6 -6 -13.5 -9t-20.5 -3l-39.5 17.5t-37.5 26.5q-8 8 -18 10.5t-18 1.5l-25.5 -13l-23.5 -12q-3 -1 -6.5 -2t-5.5 -3q-17 -14 -36 -18l-37 -8q-5 0 -10 -0.5t-7 -2.5q-23 -7 -47 -8t-47 -1q-3 0 -5 0.5t-4 -0.5q-31 -2 -59.5 2.5t-57.5 11.5
q-25 5 -46.5 17.5t-37.5 33.5l-21.5 27.5t-16.5 30.5q-11 26 -12 52.5t3 51.5q0 2 1 5t2 5q11 20 20 40t25 35q14 12 25.5 26.5t26.5 24.5q10 6 18.5 12zM394 173q-23 27 -50 49t-50 45q-6 0 -8 -1q-5 0 -9 -4q-15 -12 -22.5 -29t-9.5 -35q-5 -29 12 -53q7 -14 18 -18t23 -7
q18 4 31.5 8t24 9.5t20 14t20.5 21.5zM347 466q5 1 8.5 1t6.5 2q14 5 25 15.5t22 22.5q10 12 14 26.5t-1 32.5q-3 6 -12 13q-31 22 -66 3q-34 -18 -31 -54q2 -41 34 -62z" />
    <glyph glyph-name="quotesingle" unicode="'" horiz-adv-x="280" 
d="M212 509q-23 -14 -46 -14t-44 -4q-20 8 -37.5 13.5t-29.5 23.5q-17 26 -20.5 52.5t1.5 54.5q5 26 11.5 49.5l13.5 48.5q4 15 11 28.5t12 21.5q11 14 20.5 24.5t17.5 18.5l21 15l21 14q17 8 30 2t24 -20q5 -7 9 -14t6 -15q-3 -21 -18 -36q-13 -14 -22.5 -28t-17.5 -30
l-3.5 -7t-2.5 -8l18 -3.5t16 -3.5q17 -5 28 -17t14 -38q0 -8 0.5 -16t-0.5 -16q-3 -31 -10 -59q-5 -12 -11 -21t-12 -16z" />
    <glyph glyph-name="parenleft" unicode="(" horiz-adv-x="375" 
d="M319 -51q-2 -12 -7.5 -16t-13.5 -5q-6 -2 -11.5 -2h-11.5q-23 0 -47 -0.5t-48 -0.5q-5 0 -11 0.5t-10 0.5q-11 8 -18.5 16.5t-12.5 18.5q-13 29 -24.5 57.5t-19.5 57.5q-3 15 -8 28.5t-10 28.5q-20 54 -23 113q0 3 -0.5 6.5t-2.5 5.5q-7 14 -7.5 29.5t-0.5 29.5v142
q0 14 1.5 27.5t6.5 27.5q4 19 7.5 38t5.5 38q4 21 12 39.5t16 39.5q9 29 25 53.5l32 50.5q8 13 17.5 23t24.5 16q15 1 29.5 -1.5t29.5 -10.5q19 -11 39 -21.5t39 -21.5q2 -5 2 -10.5t1 -11.5q-26 -32 -41.5 -67.5t-26.5 -73.5l-21.5 -74.5t-15.5 -74.5q-5 -35 -8 -71t3 -73
q2 -17 3 -32.5t5 -30.5q9 -57 25.5 -109.5t39.5 -106.5q9 -18 17.5 -37t18.5 -36z" />
    <glyph glyph-name="parenright" unicode=")" horiz-adv-x="395" 
d="M203 -72q-13 -3 -32.5 -3.5t-41 0.5t-41.5 3.5t-33 5.5q-5 17 2 30q7 11 10.5 22.5t7.5 21.5l36.5 110t29.5 110q11 50 16.5 99t1.5 98q-8 119 -62 219q-9 15 -18.5 28.5l-18.5 27.5l-15 23t-15 22q-4 7 -4 17q-1 2 -0.5 4.5t0.5 4.5q3 8 8.5 11t12.5 5l54.5 20.5
t56.5 15.5h11q3 -2 5.5 -3t6.5 -4q17 -20 35.5 -39t34.5 -41q9 -11 15.5 -23t12.5 -27q17 -42 29.5 -84.5t19.5 -87.5q2 -8 3.5 -15.5t2.5 -15.5q7 -42 7 -84t-5 -85q-1 -9 -1 -19v-20q-4 -51 -15.5 -99t-31.5 -96l-29 -63.5t-33 -61.5q-5 -8 -10 -15t-13 -12z" />
    <glyph glyph-name="asterisk" unicode="*" horiz-adv-x="381" 
d="M119 377q-14 14 -32 24t-32 24q2 5 3 9.5t3 7.5q8 11 18 22t19 22q3 4 5.5 8t6.5 9q-7 3 -13 6t-11 5q-10 2 -17.5 4l-15.5 4q-9 3 -13.5 6.5t-16.5 17.5q0 35 27 70q13 2 25.5 -1t24 -7.5t23 -9.5t23.5 -8q10 4 10 14q1 14 1 29.5v30.5q0 8 0.5 16.5t0.5 18.5q5 1 8.5 4
t8.5 4q12 2 22 2.5t20 -1.5q12 -5 12 -21q2 -17 3.5 -34.5t5.5 -34.5q0 -5 0.5 -9.5t0.5 -8.5q5 -5 9.5 -4.5t9.5 2.5q12 10 25 18.5l24 15.5q20 7 35 -8q9 -15 10.5 -32t-2.5 -35q-5 -9 -14.5 -14.5t-19.5 -8.5q-12 -3 -21.5 -10t-21.5 -12q4 -13 11 -23.5l14.5 -21
l14.5 -21t12 -22.5q-2 -4 -3.5 -6.5t-5.5 -4.5l-23 -12t-23 -13q-8 -5 -12.5 -6t-21.5 0l-24 33.5t-24 35.5q-5 -3 -8 -5t-5 -7q-7 -10 -13 -19.5t-14 -20.5q-5 -8 -11.5 -14.5t-17.5 -7.5z" />
    <glyph glyph-name="plus" unicode="+" horiz-adv-x="557" 
d="M21 285q-2 43 -2 79.5t5 54.5q6 8 15 11t20 3q31 2 61 6.5t62 1.5l4 4l4 23t-1 26t0 26q6 30 -2 54q5 6 7 11.5t5 10.5q4 2 8 6q4 1 8 1t8 1q18 5 36 7.5t36 -0.5q10 -1 19 -0.5t17 0.5h25l6 -11.5t6 -8.5q2 -39 2 -77t2 -76q39 -4 77 -3.5t76 -1.5q2 -5 5 -8.5t5 -8.5
q2 -14 3.5 -28t2.5 -28q0 -13 -0.5 -27t-1.5 -26q0 -24 -23 -27q-15 0 -29 -1t-27 1q-23 0 -44 -4t-40 -4q-6 -5 -7 -9.5t-1 -8.5v-107v-12.5t-1 -8.5t-3.5 -8t-6.5 -11q-5 0 -11.5 -2.5t-12.5 -2.5q-26 -1 -51 -1t-51 -2q-16 0 -26 11q-8 11 -10 22.5t-2 22.5t1 21t1 21
q-2 7 -1 14t-1 14q-6 17 0 31q0 2 -2 6t-4 7q-43 5 -75.5 4.5t-60.5 -7.5q-22 2 -30 19z" />
    <glyph glyph-name="comma" unicode="," horiz-adv-x="262" 
d="M108 -11q-26 2 -42 13.5t-25 37.5q0 20 -1 43.5t1 46.5q1 25 13 44.5t38 30.5q20 4 42 3.5t46 -2.5q4 -2 8 -4.5t8 -6.5q8 -5 12.5 -13t6.5 -17q5 -16 8.5 -33t1.5 -34q-2 -5 -0.5 -10t1.5 -12t0.5 -15t-4.5 -16q-1 -2 -1 -5q2 -20 -3 -38t-8 -36q-5 -27 -16.5 -51.5
t-35.5 -42.5q-15 -14 -34 -25t-42 -10q-14 9 -19.5 25t-15.5 27q0 8 -0.5 15.5t-0.5 14.5q5 13 12.5 17t15.5 9q23 8 31 31q3 3 3 13z" />
    <glyph glyph-name="hyphen" unicode="-" horiz-adv-x="535" 
d="M470 331q2 -5 4.5 -9.5t3.5 -9.5q2 -26 3 -51.5t-4 -50.5q-9 -18 -27 -18q-28 0 -55 -3.5t-56 0.5q-15 1 -31 0t-32 3h-10q-23 -4 -47.5 -2t-49.5 2h-94q-1 0 -3 1t-4 1q-11 6 -15 16t-4 23v98q5 14 12.5 19t18.5 5q33 -1 66.5 -1t68.5 -2q55 -3 109 -3h40.5t40.5 1
q16 0 32 -4t33 -15z" />
    <glyph glyph-name="period" unicode="." horiz-adv-x="282" 
d="M252 153l4 -21.5t5 -19.5q-2 -6 -2.5 -13t-3.5 -14q-5 -24 -16 -42t-33 -32q-10 -6 -20.5 -8.5t-22.5 -4.5q-10 -1 -19 -0.5t-18 0.5q-21 2 -37.5 12t-27 25t-13 34t4.5 38q8 22 18 39.5t24 29.5l33.5 12l36.5 13q10 2 23 -2.5l27 -9.5q8 -10 17.5 -18.5z" />
    <glyph glyph-name="slash" unicode="/" horiz-adv-x="438" 
d="M221 700l13 5.5t11 1.5q25 -5 50.5 -3.5t48.5 -6.5q6 -5 11 -10.5t10 -9.5q2 -14 -1.5 -27t-7.5 -24q-5 -12 -9.5 -24.5t-7.5 -26.5q-8 -37 -20 -72.5l-25 -70.5q-6 -20 -13 -40t-12 -40q-7 -28 -15.5 -53.5t-13.5 -52.5q-6 -26 -13.5 -51.5l-15.5 -50.5
q-8 -26 -14 -51.5t-15 -49.5q-3 -10 -4.5 -22t-9.5 -21q-2 -4 -4.5 -6.5l-7.5 -7.5q-11 -1 -21.5 -1.5t-22.5 -2.5q-5 0 -9 0.5t-9 2.5q-9 6 -19.5 7t-21.5 3q-9 6 -17 12.5l-15 12.5q-6 16 -5 28.5t6 24.5l18.5 68t20.5 69q10 38 22 76.5t26 76.5l28 92.5t30 93.5
q11 33 20 65t20 65q3 5 6.5 10z" />
    <glyph glyph-name="zero" unicode="0" horiz-adv-x="616" 
d="M42 447v31t6 32v12q2 28 12 51.5t24 44.5q28 38 70 61q21 14 43.5 21.5t47.5 11.5q19 4 37.5 5t37.5 5q15 2 30 -1.5t29 -8.5q11 -3 21 -7l20 -8q14 -7 25.5 -16t24.5 -18q17 -14 32.5 -30.5t28.5 -36.5q20 -29 30.5 -60.5t11.5 -66.5v-88t-1 -86q-3 -64 -24 -126
q-4 -9 -9 -17l-10 -16l-22 -31t-24 -29q-8 -9 -20 -15.5l-24 -12.5q-20 -11 -39.5 -20t-42.5 -12q-7 0 -14 -1.5t-14 -0.5q-23 2 -44.5 2.5t-42.5 5.5q-23 5 -43.5 14t-37.5 23q-5 4 -11 7t-11 7q-23 18 -40.5 39t-27.5 48q-6 15 -10.5 31t-10.5 31v15q0 17 -5 35
q-4 14 -3.5 26.5t0.5 26.5v53v69zM313 576q-41 3 -60 -34q-8 -15 -13 -29.5t-7 -31.5q-4 -17 -5.5 -36t-2.5 -37q-4 -38 -0.5 -76t9.5 -76q2 -14 5.5 -29.5t8.5 -29.5q4 -10 9.5 -18.5t15.5 -15.5q6 -2 11.5 -3.5t10.5 -2.5q39 2 59 22t31 50q8 24 11.5 48.5l6.5 47.5
q5 41 1 81t-14 81q-4 14 -8.5 28t-12.5 25.5t-19.5 21t-29.5 14.5h-7z" />
    <glyph glyph-name="one" unicode="1" horiz-adv-x="435" 
d="M165 447q-16 -7 -29.5 -13.5t-27.5 -12.5l-25 -12t-26 -12q-10 -7 -14 -7t-19 5q0 2 -1.5 5t-1.5 6q-2 38 -2.5 74.5t2.5 71.5q5 11 12 17.5t15 12.5l47.5 37l46.5 37q17 12 29 23q27 27 64 27h103q7 0 14 -1t13 -8q4 -13 3 -25t1 -23v-155v-10t-2 -10q-5 -14 -5 -28.5
v-29.5q-1 -41 -0.5 -81.5t-0.5 -81.5q0 -54 -1 -106t-1 -105q0 -9 -2 -18t-12 -16q-26 3 -52.5 0t-52.5 -2q-16 0 -31.5 2t-29.5 5q-2 0 -4 1.5t-5 2.5q-2 10 -2 21q0 82 -3 164.5t1 166.5q2 14 2 30v30q0 5 -1 9t-2 9z" />
    <glyph glyph-name="two" unicode="2" horiz-adv-x="664" 
d="M63 467q-9 20 -9.5 39t0.5 39q2 22 9.5 41.5t16.5 36.5q8 14 18 25t24 19q26 15 53 25.5t56 14.5q63 7 124.5 3.5t122.5 -18.5q42 -11 68.5 -37.5t40.5 -64.5q16 -48 14 -94t-27 -91q-11 -23 -26.5 -42t-35.5 -38l-39.5 -37l-39.5 -38q-15 -16 -30.5 -30l-30.5 -28
q-3 -4 -6.5 -8t-5.5 -10q13 -2 23.5 -2h21.5q38 0 76.5 0.5t77.5 0.5q11 0 22 -1t22 -9q2 -5 3 -9.5t1 -9.5q-3 -24 -2.5 -48t-1.5 -47q0 -14 -3 -29q-4 -6 -9.5 -8.5t-10.5 -3.5q-18 -3 -33 -3q-46 0 -91 0.5t-91 0.5h-137t-137 -1q-8 0 -16.5 0.5t-17.5 0.5q-3 5 -6 8
t-5 6q-2 17 -3 34t6 34q2 2 2 6.5v9.5q0 15 2 31t8 33l22.5 18t23.5 17l27.5 19t26.5 20q20 13 32 24q29 29 60.5 54l63.5 48q21 15 38 30q48 41 39 109q-4 21 -26 38q-13 9 -30.5 12t-35 -0.5t-33 -13.5t-23.5 -26l-10 -23.5t-10 -24.5q-1 0 -6 -5q-17 -1 -32.5 -3
t-31.5 -2q-21 0 -41.5 1.5t-41.5 2.5q-3 0 -5.5 1.5t-4.5 2.5z" />
    <glyph glyph-name="three" unicode="3" horiz-adv-x="634" 
d="M102 59q-27 23 -40 45t-24 46q-10 18 -11 39q3 10 10.5 15l15.5 10q16 2 32 1.5t29 11.5q17 1 31 0.5t28 5.5q2 1 6.5 1h7.5q23 4 36 -21q8 -12 17 -24t25 -21q34 -5 66 5q19 10 27 28q12 28 8 52.5t-21 47.5q-5 6 -12.5 10l-13.5 7q-16 6 -33.5 11t-34.5 13q0 1 -1 3
t-1 4q0 13 -1 27.5t2 28.5q3 15 3 31.5t10 30.5q16 8 34 11t34 14q7 9 9.5 18.5t4.5 19.5q5 32 -24 43q-14 5 -28 7.5t-31 -1.5q-14 -3 -23 -9t-17 -18q-3 -5 -5.5 -10.5t-4.5 -10.5q-2 -4 -5.5 -6.5t-5.5 -5.5q-14 -3 -27 -1t-26 5q-5 2 -9.5 3.5t-8.5 1.5q-18 5 -35 8.5
t-34 1.5q-11 5 -14 13.5t-8 16.5q4 28 18.5 55t36.5 46t47.5 30t54.5 18q30 6 61 8t61 0q19 0 34.5 -5t31.5 -11q15 -5 30.5 -12t31.5 -15q18 -8 35 -20.5t29 -31.5q8 -11 13.5 -22t7.5 -26q6 -19 7.5 -38.5t-6.5 -36.5q-5 -20 -13 -38t-22 -34q-2 -5 -6 -8.5t-9 -8.5
q-3 -4 -3 -13q10 -5 16 -10q40 -26 59 -62t15 -85v-29q2 -29 -7 -56t-20 -54q-14 -21 -32 -39l-23.5 -17.5t-26.5 -17.5q-26 -16 -56 -21q-20 -2 -39 -7t-40 -2q-36 -5 -71 2t-71 13q-17 3 -32 10t-29 16q-7 4 -12.5 7.5t-7.5 5.5z" />
    <glyph glyph-name="four" unicode="4" horiz-adv-x="667" 
d="M545 285q10 -4 20 -4h19t18 -0.5t18 -5.5q9 -20 11 -50t0 -78q-2 -2 -5 -5.5t-8 -5.5q-15 -2 -30 -2t-32 -1q-1 -6 -2 -10t-1 -7q0 -17 1 -35t1 -35q0 -13 -2.5 -19.5t-13.5 -18.5q-11 -3 -23 -5t-24 -2h-64q-23 -1 -47 10q-6 8 -8 18.5t-2 21.5v51v10.5t-1 8.5
q-6 6 -10 5.5t-9 -0.5q-26 0 -53.5 1t-53.5 -3q-42 -5 -84 -4t-83 0q-14 0 -28 2t-25 14q-6 10 -5.5 19t0.5 19q0 17 -3 34q-2 34 4 64.5t31 56.5l31.5 34t32.5 36l23 27l25 28l29 30.5l29 29.5q24 20 42.5 43.5t38.5 46.5l28 31t29 31q8 9 19 14.5t25 4.5h51.5t52.5 -2
q14 0 20 -5t9 -19q4 -18 7 -35t-4 -34q-1 -5 -0.5 -9t0.5 -8q-1 -30 -1 -60.5v-59.5q0 -14 1.5 -27.5t1.5 -26.5q2 -23 2.5 -46.5t0.5 -46.5v-10t1 -11zM360 439q-16 -11 -47.5 -44.5t-86.5 -98.5q-2 0 -1 -1.5t1 -3.5q11 -1 23 0.5t23 2.5q11 2 21.5 1.5t22.5 -0.5
q11 1 23 0t23 1q1 12 1.5 32.5t0 41.5t-1.5 40t-2 29z" />
    <glyph glyph-name="five" unicode="5" horiz-adv-x="636" 
d="M567 559q-5 -5 -9 -10.5l-8 -10.5q-69 -4 -138 -3t-139 -7l-2 -16.5t-3 -19.5q8 -2 12 -2h67q22 1 42 -3.5t41 -8.5q7 -2 13 -4t13 -4q92 -24 126 -118q12 -34 13.5 -68.5t-3.5 -70.5q-2 -23 -9 -45t-21 -43q-15 -24 -32.5 -45t-43.5 -37l-4 -2t-4 -3q-9 -10 -20 -15.5
t-23 -9t-24 -6.5t-24 -7q-2 0 -3.5 -1t-3.5 -1q-23 0 -46.5 -0.5t-47.5 0.5q-12 2 -25.5 5l-27.5 6q-2 2 -6 2.5t-8 1.5q-67 11 -115 57q-8 11 -19.5 20t-19.5 19q-8 9 -14 20t-11 23q-2 6 -2.5 13t-0.5 12q6 14 14.5 20.5t19.5 8.5q12 2 24.5 4.5t25.5 3.5q14 2 28 4.5
t28 8.5q2 1 6 1.5t8 2.5q22 11 40 -10q8 -10 18.5 -18t22.5 -16q14 -11 31 -16.5t34 -7.5h6q22 2 32 15.5t15 31.5q5 27 -0.5 51t-23.5 46q-14 15 -32 15q-19 0 -36 -1.5t-34 -6.5q-11 -1 -25 -10q-9 -8 -18.5 -9.5t-21.5 0.5q-36 9 -72 15q-10 5 -23 5q-33 4 -44 37
q2 10 2.5 20t2.5 23l4 25l4 27q1 29 4.5 57.5t9.5 57.5q5 17 7 36t4 36q2 14 4.5 28t9.5 25q11 6 20 8t20 2q54 0 105.5 1t105.5 1q24 0 49.5 -1t48.5 -1l46.5 -4t45.5 -5l5.5 -7.5t2.5 -8.5q1 -29 2.5 -57t3.5 -56z" />
    <glyph glyph-name="six" unicode="6" horiz-adv-x="632" 
d="M376 -5h-16t-18 2q-4 0 -9 0.5t-9 -0.5q-27 -5 -54.5 0.5t-55.5 13.5q-32 8 -56.5 27t-46.5 45q-30 32 -43 72t-17 84l-4 41.5t-6 41.5q-2 19 -2 37t4 38q3 14 4.5 28.5t3.5 29.5q3 20 8.5 41t13.5 41q10 22 24 42q17 28 38 53.5t47 45.5q29 26 66 33q41 9 82 6.5
t82 -15.5q27 -8 49.5 -20t44.5 -29q17 -15 27 -34l10 -21.5t10 -22.5q2 -6 2.5 -12.5t-1.5 -14.5q-39 -17 -79 -22t-80 -11q-7 3 -9.5 7t-4 8.5l-3 9t-4.5 8.5l-14 10t-15 10q-32 5 -55 -6.5t-34 -41.5q0 -1 -1 -1.5t-1 -1.5q2 -5 2 -9.5v-9.5q-2 -5 -4 -9.5t-4 -11.5
q1 -6 0 -13t-1 -14t2 -14.5t8 -13.5q4 2 8 2t7 2q20 11 40.5 15.5t42.5 6.5q14 2 31 2h34q19 0 34 -5.5t30 -14.5q77 -42 101 -126q9 -29 14 -56.5t3 -55.5q-3 -38 -16.5 -72.5t-41.5 -60.5q-5 -4 -8.5 -6.5t-7.5 -4.5l-50 -24.5t-56 -17.5q-10 -2 -21 -5.5t-25 -5.5z
M297 147q5 -1 11 -2t12 -3q28 -3 44 7.5t26 36.5q8 23 8 46t-5 45q-6 22 -19 32t-33 12h-25q-5 -5 -9 -8t-7 -9q-7 -10 -12 -27q-9 -20 -10.5 -41t0.5 -41q1 -11 4 -23.5t15 -24.5z" />
    <glyph glyph-name="seven" unicode="7" horiz-adv-x="620" 
d="M164 76q5 10 6 20.5t3 21.5q7 32 15.5 63.5t19.5 63.5q12 32 29 62.5l34 61.5t36 61l37 59q4 4 6 9t-3 12q-8 0 -17 0.5t-18 0.5q-57 0 -114 3t-114 4q-13 0 -24.5 2t-22.5 10q-4 8 -4 13v107q0 13 2.5 19t12.5 17h36h24.5t25.5 2q14 5 33 0q14 -2 26.5 -1t26.5 0
q14 0 25.5 -0.5t23.5 -1.5h5q20 5 38.5 2.5t38.5 -1.5q7 0 13.5 0.5t13.5 0.5h26q7 0 15 -0.5t16 -0.5l54.5 2t52.5 4q10 0 18.5 -0.5t16.5 -4.5q10 -7 13 -15t3 -17v-125q0 -1 -3 -10q-11 -12 -23 -27t-25 -29q-3 -4 -6 -7.5t-7 -6.5q-15 -27 -35 -50q-40 -52 -64.5 -111
t-40.5 -123q-8 -30 -13.5 -58.5t-6.5 -58.5v-6.5t-1 -7.5q-2 -17 -17 -22q-8 -2 -13.5 -3t-12.5 -2q-19 -2 -40 -3.5t-42 -3.5q-35 -4 -79 8v67z" />
    <glyph glyph-name="eight" unicode="8" horiz-adv-x="621" 
d="M533 621q5 -20 10.5 -38.5t9.5 -37.5q2 -9 3 -18t-4 -17q-2 -3 -2.5 -6.5t-0.5 -5.5q0 -17 -7 -29t-15 -24l-10 -13.5t-9 -13.5q-3 -6 -8.5 -11.5l-11.5 -11.5l53 -56.5t41 -66.5q-5 -10 -4.5 -20.5t2.5 -23.5q2 -9 2 -19t-5 -19q-4 -11 -5.5 -20.5t-3.5 -19.5
q-8 -30 -26.5 -52t-41.5 -39q-21 -14 -42 -26t-46 -20q-29 0 -58 -0.5t-58 -1.5q-29 0 -56.5 4.5t-55.5 16.5q-16 4 -28 8q-37 12 -64 40q-15 16 -26 31.5t-16 35.5q-2 8 -5 14t-6 13v51q0 2 -0.5 5.5t0.5 6.5q8 38 20.5 74t40.5 66q6 7 13.5 13t14.5 13q-2 4 -4 7.5t-5 5.5
l-15 19.5t-15 18.5q-11 10 -16 22t-10 28q-1 5 -0.5 10t0.5 11q-2 4 -4 9t-5 9q5 26 17 49.5t23 48.5q8 3 16 11q28 29 62.5 44.5t71.5 26.5q20 5 41 7.5t42 2.5q79 3 146 -47q20 -13 33 -30.5t27 -34.5zM381 299q-8 11 -17.5 16t-21.5 7q-20 1 -45 6q-6 -2 -13 -4t-13 -3
q-20 -14 -31.5 -33.5t-16.5 -42.5q-2 -8 -3 -17t3 -17q7 -23 22 -37.5t40 -19.5q8 -1 14.5 -1h13.5q39 -4 61 24q10 21 12 41t1 43q-1 8 -2.5 17.5t-3.5 20.5zM276 463q11 1 21 0t21 -5q9 -4 20 -3t21 6t17.5 14t9.5 21q5 20 2.5 39t-22.5 33q-4 2 -5.5 5t-4.5 5
q-6 6 -16.5 9.5t-22.5 4t-23.5 -2t-18.5 -8.5q-15 -12 -21.5 -28t-6.5 -34q-1 -16 5 -30.5t24 -25.5z" />
    <glyph glyph-name="nine" unicode="9" horiz-adv-x="632" 
d="M423 38q-16 -5 -29 -9.5t-25 -9.5q-9 -2 -16 -4t-15 -2q-11 0 -24 -5q-17 -4 -32.5 -3t-32.5 3q-10 2 -20.5 3t-24.5 3l-37 17l-42 18l-23 21t-22 26q-9 12 -16 27.5t-17 29.5q0 6 0.5 11.5t0.5 12.5q5 7 10 12t10 12q36 4 71 9.5t71 3.5q5 -4 9 -8t9 -8q6 -7 11 -15
t11 -14q31 -25 66 -9q12 4 21 11q11 12 16 26t8 28l7.5 37t1.5 39q-12 -4 -20.5 -6t-16.5 -5q-35 -16 -70 -20.5t-71 -2.5q-23 2 -47 9.5t-46 21.5q-17 11 -26.5 26.5t-17.5 33.5q-8 21 -12.5 42.5t-2.5 44.5q3 14 -1 27q-2 17 -2 32t2 29q2 38 17 69.5t40 60.5q25 25 56 45
q11 6 22.5 9.5t22.5 7.5q10 0 19 2t17 4q35 6 70.5 7t70.5 -7q57 -12 108 -49q10 -8 19 -16.5t16 -19.5q17 -29 30 -59.5t21 -63.5q5 -18 7 -37.5t3 -38.5q1 -26 1 -52v-52q-1 -23 -4 -46.5t-10 -46.5l-4 -10t-2 -13q-1 -24 -9.5 -45.5t-20.5 -39.5l-25.5 -35t-19.5 -22.5
t-23.5 -19.5zM249 594q-1 -2 -1.5 -2t-1.5 -1l-1 -1q-20 -38 -22 -76t2 -78q5 -34 40 -46q38 -11 65 6t36 51q7 32 4 62.5t-19 60.5q-5 8 -9.5 17t-12.5 15q-15 2 -24.5 3t-18 0t-17 -3.5t-20.5 -7.5z" />
    <glyph glyph-name="colon" unicode=":" horiz-adv-x="312" 
d="M88 290q-20 14 -29 33t-9 45q0 28 6 54t20 55q6 8 15.5 17t24.5 15q14 0 29.5 -1t31.5 1q36 1 60 -26q5 -2 6 -5q1 -2 2 -3q8 -18 13 -34.5t10 -30.5q0 -14 -1 -26l-2 -24q-2 -8 -3 -15t-4 -16q-6 -14 -16.5 -24t-27.5 -12q-12 -2 -24.5 -5.5t-23.5 -5.5q-39 -7 -78 8z
M282 107q-2 -10 -2.5 -17t-1.5 -15q-11 -50 -56 -70q-28 -11 -55.5 -14t-56.5 2q-10 2 -18.5 7t-17.5 9q-5 6 -9 12t-8 14q-2 17 -6.5 34t3.5 35q1 17 8.5 32.5t13.5 31.5q5 4 10 5q25 18 52.5 21t56.5 0q21 -2 38 -13.5t32 -25.5q4 -5 7 -11.5t5 -14.5q2 -6 3 -11.5z" />
    <glyph glyph-name="semicolon" unicode=";" horiz-adv-x="303" 
d="M170 -157q-8 -5 -16.5 -9.5t-18.5 -8.5q-4 -3 -8.5 -5.5t-9.5 -3.5q-15 -7 -27 11q-3 2 -7 10q-5 11 -9 21t-7 23q-1 6 -0.5 12t0.5 14q5 6 10 11t10 12q19 16 36 36q9 9 2 23q-2 1 -5.5 1t-5.5 2q-28 2 -43 19t-16 45q0 8 -0.5 17t-4.5 16q-3 13 0 26q2 14 4.5 26.5
t6.5 24.5q7 26 29 39q12 7 24.5 11.5t26.5 2.5h40q34 0 56 -20t26 -53q1 -6 1 -12v-13q0 -27 -1 -55.5t-6 -57.5q-2 -20 -8 -41t-15 -41q-10 -20 -22.5 -37t-30.5 -33q-2 -4 -5.5 -7.5zM119 294q-35 1 -60 24.5t-27 58.5v23t2 21q1 26 15 42.5t37 23.5l36.5 7.5t37.5 4.5
q12 2 25.5 -1l26.5 -6l11.5 -2t11.5 -3q10 -5 14 -13t6 -19q1 -27 6 -53q2 -17 -1 -32t-7 -32q-8 -22 -26 -29q-12 -7 -32 -15h-76z" />
    <glyph glyph-name="less" unicode="&#x3c;" horiz-adv-x="549" 
d="M473 613q6 -10 8.5 -21t2.5 -19q0 -26 0.5 -52t-0.5 -52q0 -11 -2 -22l-4 -21q-16 -24 -42 -31l-21.5 -9.5t-23.5 -6.5l-54.5 -14.5t-55.5 -17.5q-2 -1 -4.5 -2.5t-6.5 -2.5q14 -16 31.5 -26t34.5 -15q18 -4 35 -15q15 -8 31.5 -15t33.5 -15q11 -5 21 -11t18 -17
q4 -7 6.5 -14.5t2.5 -15.5v-36.5t-3 -35.5q-3 -12 -2.5 -24t-5.5 -26q-9 -9 -21 -11t-24 4q-14 8 -29.5 14.5l-29.5 12.5l-49 19.5l-50 20.5q-29 10 -56.5 21.5t-55.5 24.5q-26 11 -48.5 22.5t-44.5 26.5q-4 2 -8 4.5t-9 4.5q-16 6 -26 17t-15 33q0 23 0.5 51t-0.5 57
q-2 49 41 74l52.5 28t55.5 23l91 34l90 34q21 9 42 13.5t43 8.5q14 5 24 4.5t27 -4.5z" />
    <glyph glyph-name="equal" unicode="=" horiz-adv-x="626" 
d="M562 326q2 -3 5.5 -6t5.5 -6q2 -35 1 -68t-1 -66q-8 -13 -13 -19q-4 -1 -6.5 -2t-4.5 -1h-48.5t-48.5 2q-57 0 -114 -6q-14 -1 -27 -1h-27h-177q-11 0 -22.5 0.5t-22.5 7.5q-12 16 -11 34v41.5t-1 41.5q0 10 1 15q2 11 7 18t18 9q15 2 29 3.5t30 2.5h40.5t40.5 2h197
q36 0 72.5 -1t76.5 -1zM564 408q-44 -4 -87.5 -6.5t-88.5 -1.5q-33 0 -67 0.5t-68 -1.5l-75.5 -2t-75.5 -9q-11 0 -21 0.5t-20 9.5q-5 8 -10 20q0 16 1 32t-1 30q-2 16 2 30t15 28q7 5 16 7t20 4q38 8 77.5 7t79.5 1q8 0 16 -0.5t16 3.5q5 2 8.5 2h8.5q48 1 95 1t96 2
q14 0 27 -1t28 -1q5 -5 8.5 -9t8.5 -9q2 -33 0.5 -63.5t-3.5 -62.5q0 -2 -2 -4t-4 -7z" />
    <glyph glyph-name="greater" unicode="&#x3e;" horiz-adv-x="549" 
d="M60 234q14 17 31 23.5t31 14.5q14 9 30 17.5t31 17.5q16 8 31 17.5l30 18.5q0 5 -3 7t-7 4l-26 10l-27 10q-7 3 -15 6t-16 8q-15 7 -32 13t-34 9q-6 1 -11.5 3.5t-10.5 4.5q-2 1 -3 2.5t-4 3.5q0 4 -1.5 10t-1.5 11q2 22 3 45l2 44v34q0 10 1 19t1 18q8 6 13.5 11.5
t10.5 9.5q30 7 55 -4q20 -7 38 -15l41.5 -17.5t41.5 -18.5q5 0 10 -4q20 -14 44 -22.5t50 -16.5q6 -4 12 -6q29 -18 61 -31t61 -29q13 -7 23 -15q13 -11 18 -22.5t5 -26.5l-4 -62.5t-5 -62.5q0 -6 -2 -12t-3 -13q-6 -2 -10.5 -5t-8.5 -5q-19 -8 -38 -14.5l-38 -13.5
q-15 -5 -30 -9t-27 -14q-6 -4 -13 -6q-14 -4 -27 -9.5t-25 -13.5q-8 -5 -17.5 -7.5t-18.5 -6.5q-11 -5 -20.5 -10t-19.5 -9q-10 -2 -19 -6.5t-17 -9.5q-9 -4 -18.5 -6.5l-20.5 -5.5q-15 -5 -29 -11t-28 -14q-17 -8 -29 -7q-19 0 -21 18q0 4 -1 7.5t-1 6.5q2 25 1 49.5
t4 50.5q2 9 2 18t1 19z" />
    <glyph glyph-name="question" unicode="?" horiz-adv-x="560" 
d="M372 237q-6 -9 -11 -13.5t-13 -4.5h-119q-13 0 -22 10q-2 11 -2 21v20q-1 12 -1.5 24.5t-2.5 23.5q-7 49 20 88q6 8 14 15t15 14q10 14 23 24q27 20 32 55q-5 16 -19 20q-11 4 -19.5 2.5t-16.5 -10.5q-8 -19 -7.5 -40.5t-8.5 -38.5q-12 -7 -22 -9t-21 -3
q-30 -2 -59.5 -3.5t-58.5 -2.5q-4 -2 -8 -1t-10 1q-14 10 -21 19q-5 13 -5.5 26t0 26t2 25t0.5 24l9 21.5l9 20.5q4 10 12.5 21.5t18.5 22.5t20.5 20t20.5 14l28 16t28 15q21 11 47.5 17t49.5 6h44q25 2 48 -3t48 -9q4 0 6 -2q15 -9 31 -17t30 -18q14 -11 23.5 -24.5
l18.5 -27.5q5 -7 7.5 -18t6.5 -20q14 -32 10 -63t-15 -63q0 -6 -5 -11q-17 -23 -36 -44.5t-42 -36.5q-14 -8 -26 -16t-22 -16q-17 -24 -20.5 -49t-8.5 -48zM249 -34q-18 8 -27 12.5t-15 9.5t-11.5 12t-14.5 20q-11 30 -8 60.5t32 65.5q10 11 31.5 16t44.5 3q13 0 23 -1.5
t21 -3.5q5 -2 10.5 -5l10.5 -6q32 -26 39 -54.5t-13 -72.5q-14 -27 -39.5 -40.5t-56.5 -15.5q-8 -2 -14.5 -1t-12.5 1z" />
    <glyph glyph-name="at" unicode="@" horiz-adv-x="794" 
d="M360 574q21 1 33.5 1t24 -2t26 -6t39.5 -12q3 6 6.5 12l6.5 11q4 1 7 2.5t5 1.5q12 -2 24 -6q11 -2 22 -5.5t22 -5.5q12 -9 12 -28q-1 -21 -0.5 -42t-5.5 -41q-4 -9 -2.5 -19.5t-0.5 -18.5t-2.5 -18t-2.5 -21q-2 -17 -4.5 -35.5t-4.5 -37.5q-1 -8 -1.5 -17.5t-0.5 -19.5
q0 -8 3 -13t16 -12q16 5 25 15.5t14 22.5q31 70 37 142q0 15 1 30t-2 30q-3 16 -8.5 29t-18.5 26l-19.5 22.5t-23.5 22.5q-10 8 -20 15t-22 11q-67 28 -136 31q-35 2 -67.5 -7t-59.5 -32q-26 -23 -46 -51q-14 -20 -25.5 -42.5t-18.5 -45.5q-2 -8 -5.5 -15t-5.5 -14
q-2 -8 -5.5 -16t-3.5 -16q0 -17 -3 -33l-6 -33q-2 -8 -1 -15t1 -15q1 -6 0.5 -13t-0.5 -14q5 -16 8.5 -33t8.5 -34q11 -43 39 -71.5t66 -48.5q19 -2 34.5 -9t35.5 -5q14 3 29 1l30 -4q6 0 11 1t12 1q6 1 13.5 2.5t13.5 -1.5q14 -3 28 -1t28 5q14 2 29.5 4.5t29.5 4.5
q35 6 59 20q15 7 23 9h8q21 -10 26 -30t12 -37q-1 -12 -7 -19.5t-15 -11.5q-7 -5 -15 -9t-17 -6l-68 -17.5t-69 -18.5l-36.5 -8.5t-37.5 -7.5q-41 -4 -81 0q-43 4 -83 17.5t-78 33.5q-23 14 -42 32t-36 37q-26 35 -45.5 74t-27.5 82q-5 25 -8.5 50t2.5 50q0 2 0.5 4.5
t0.5 7.5q-2 31 6 62.5l16 63.5q11 35 28 68t42 60q17 20 35.5 38t39.5 34q11 8 22 14.5t24 12.5q21 9 43 17l45 17q26 12 54 14t57 0q39 -6 75 -17t72 -28q2 -2 4 -2.5t4 -2.5q40 -15 67 -42t47 -62l18 -33t12 -35q4 -14 5.5 -29t2.5 -30q2 -32 1 -62.5t-6 -61.5
q-10 -52 -43 -97q-20 -26 -43.5 -48.5t-54.5 -36.5q-24 -13 -51 -13q-10 0 -21.5 -2t-21.5 -1q-8 0 -17.5 3t-18.5 5l-17.5 8l-17.5 8q-18 -6 -34 -12.5l-30 -12.5h-50q-61 0 -92 51q-8 7 -11.5 16t-5.5 19q-5 18 -8.5 36t-1.5 38q1 15 1 31.5t2 30.5q0 4 0.5 7t0.5 6
l9.5 30.5t7.5 28.5q5 18 13.5 34.5t16.5 34.5q2 6 9 11q4 5 8 7t7 7q12 20 30 30t36 18zM419 447q-25 -5 -38.5 -19t-19.5 -34q-5 -22 -7 -43l-4 -44q-1 -6 0.5 -12.5t2.5 -14.5q7 -27 36 -32q29 -7 48 17q4 8 9 15t10 15q3 20 5 41.5l4 41.5q-2 9 -4 16l-4 14q-3 17 -12 27
t-26 12z" />
    <glyph glyph-name="A" unicode="A" horiz-adv-x="823" 
d="M741 19q-2 -5 -5 -9.5t-5 -6.5q-6 -3 -11 -3h-117q-12 0 -23.5 -1t-26.5 -2q-17 7 -23 27l-12 34.5l-13 35.5q-5 8 -8 16q-8 1 -27 2t-42.5 1.5t-49.5 0.5t-49.5 -0.5t-41 -1.5t-23.5 -2q-11 -21 -20.5 -44.5l-21.5 -51.5q-1 0 -5.5 -3t-10.5 -8q-1 0 -3 -1t-5 -1
q-10 -1 -21 -0.5t-22 -0.5q-11 0 -20.5 -1t-20.5 -2q-16 -3 -36 0q-7 1 -14.5 0.5t-14.5 -0.5q-8 -2 -13 -1t-11 7q1 12 3.5 25.5t7.5 27.5q13 35 23 71t23 71l25 78t28 78l21.5 61t23.5 60q5 11 7.5 21l5.5 21q11 40 28 78.5l33 76.5q5 14 15 19.5t25 5.5h68.5t67.5 2
q11 0 21.5 -1t19.5 -1q24 0 34 -22l6.5 -15t5.5 -16l38 -88t32 -90q11 -30 20 -60t19 -60q17 -54 34.5 -104t39.5 -100q6 -18 11 -36t13 -36q9 -19 17 -51zM381 433q-12 -15 -22 -47t-17 -82q26 -4 49.5 -3t37.5 5q-11 32 -23 63.5z" />
    <glyph glyph-name="B" unicode="B" horiz-adv-x="755" 
d="M53 680q8 6 16.5 7t15.5 1q20 0 41.5 -0.5t41.5 -0.5h31.5t31.5 1h21q24 -2 46.5 -1t46.5 0q26 -1 52 1t55 0q24 -2 48.5 -2.5t50.5 -6.5q35 -8 64 -36t32 -72q2 -14 1 -29.5t1 -29.5q0 -14 -5 -26.5t-9 -24.5q-1 -5 -4.5 -8.5l-7.5 -7.5q-15 -20 -30.5 -38t-34.5 -34
q-3 -3 -3 -5q1 -6 5.5 -6t6.5 -2q18 -7 33 -17t29 -23q46 -40 49 -106q2 -30 -5 -55t-19 -50q-3 -3 -3 -7q-8 -24 -26 -38.5t-38 -25.5q-4 -1 -7.5 -2.5t-6.5 -1.5q-8 1 -14 -4.5t-12 -7.5q-15 2 -27.5 3.5t-25.5 -6.5q-11 -5 -22.5 -5.5t-22.5 -0.5t-22.5 0.5t-21.5 -5.5
q-3 -2 -7.5 -2h-9.5h-114h-145h-34q-23 0 -39 11q-6 17 0 31q3 8 3.5 17t0.5 20v88q-2 16 -3.5 30.5t-1.5 30.5q-2 35 -2 69.5t-1 70.5q0 23 -1 45.5l-2 44.5q-3 34 -2.5 66.5t0.5 64.5q-2 12 -2 23.5v22.5q0 24 8 39zM433 180q11 17 12 35.5t-4 38.5q-7 19 -29 30h-33
t-34 -2q-19 -2 -37.5 -0.5t-35.5 -6.5q-5 -10 -4 -19t1 -17q0 -11 1 -21l2 -20q2 -8 1.5 -17.5t5.5 -17.5q4 0 7.5 -1t6.5 1q15 2 31 2.5t32 0.5h40q10 0 18 3t19 11zM268 445q0 -5 0.5 -8.5t2.5 -9.5q20 2 37.5 2.5t34.5 2.5q18 2 35 0.5t34 3.5q20 20 23 33t-9 42
l-18.5 18t-22.5 11q-29 -2 -58 -1t-59 -5v-89z" />
    <glyph glyph-name="C" unicode="C" horiz-adv-x="725" 
d="M664 534l-3 -9q-8 -11 -12 -15q-27 -17 -53.5 -27.5t-50.5 -18.5q-15 -2 -28 -3.5t-26 -2.5q-7 1 -13.5 6t-12.5 11q-14 20 -32.5 29t-40.5 13q-50 4 -93 -23q-23 -17 -35 -39q-9 -15 -16.5 -29.5t-12.5 -30.5q-7 -25 -12 -49.5t1 -49.5q5 -14 6 -25.5t3 -22.5
q10 -38 37.5 -58t63.5 -22q6 -2 10.5 -1t8.5 -1q32 -2 57 9t47 31q19 17 34 35.5l30 38.5q3 4 6 7.5t8 7.5l16.5 -5.5t14.5 -5.5l55.5 -21t55.5 -18q28 -9 19 -36q0 -6 -3 -9l-21.5 -43.5t-29.5 -40.5q-6 -5 -9.5 -12.5t-9.5 -12.5q-32 -36 -71.5 -60.5t-88.5 -32.5
q-7 -2 -14 -4.5t-17 -6.5h-71q-26 -1 -51 2.5t-51 8.5q-32 8 -60 24t-52 39l-31.5 39t-26.5 42l-12.5 22t-12.5 23q-14 24 -19.5 50.5t-5.5 55.5v53q0 6 -1 11.5t3 10.5q6 14 4.5 27.5t0.5 23.5l7 23.5t5 19.5l17.5 54t22.5 52q35 62 95 101q12 8 25 13l26 10q8 4 15 6t15 6
q20 8 40.5 11.5t43.5 0.5q9 -1 19 0t21 0q42 -8 83.5 -21.5t79.5 -34.5q2 -1 4 -2.5t5 -2.5q26 -25 49 -50.5t40 -58.5q2 -3 2.5 -5.5t2.5 -6.5z" />
    <glyph glyph-name="D" unicode="D" horiz-adv-x="732" 
d="M48 674q7 7 13 9.5t14 3.5q5 1 11 1.5t11 2.5q103 6 205 6q39 0 77.5 -6t76.5 -14q59 -12 99 -55q10 -9 19.5 -19t19.5 -19q11 -13 19 -27t14 -31q18 -43 26 -90q2 -8 3.5 -15t1.5 -14v-33.5t1 -31.5q1 -36 -5.5 -70.5t-17.5 -69.5q-2 -8 -5 -15.5t-7 -15.5
q-30 -78 -103 -118q-11 -5 -20 -10t-19 -10q-4 -2 -9 -5t-10 -3q-18 -2 -31 -11q-20 -2 -37.5 -1t-35.5 -7q-3 -1 -6 -0.5t-7 0.5h-144q-5 0 -9.5 1t-9.5 2q-10 4 -21 4t-23 -2q-6 -2 -12 -3.5t-13 -2.5q-14 0 -26.5 0.5t-25.5 0.5q-17 12 -14 28q2 21 -0.5 44t4.5 45
q2 2 2 5v6v88v23.5t-4 20.5q-2 5 -2 9v9v126q0 14 -0.5 39l-1 52.5t-0.5 54v44.5t1 36.5t1 37.5zM268 487q0 -4 -0.5 -7t-0.5 -5q1 -30 1 -59v-61l4 -82.5t3 -83.5q1 -4 1.5 -7t2.5 -9q29 2 58 6.5t57 15.5q19 8 26 24q6 9 10.5 19.5t5.5 20.5q3 26 5.5 51t1.5 52
q0 17 -2.5 33.5t-9.5 30.5q-9 18 -21 31.5t-26 25.5q-10 13 -27 13q-20 2 -43 1t-46 -10z" />
    <glyph glyph-name="E" unicode="E" horiz-adv-x="660" 
d="M581 174q3 -19 3.5 -58t-1.5 -92q-8 -14 -21.5 -18.5t-28.5 -5.5q-28 -5 -51 -5h-15.5t-15.5 2q-13 1 -23.5 2.5t-21.5 0.5q-36 -4 -71.5 -2t-71.5 0h-8.5t-8.5 2q-29 8 -59 6.5t-59 -1.5q-15 0 -28 0.5t-27 0.5q-15 0 -24 16q0 12 -1 25.5t-1 27.5q0 42 -0.5 83t-0.5 82
v280q0 17 -1 32t-1 29q-1 3 -1 7l2 45.5t1 43.5q8 13 25 18q5 2 10.5 2h9.5q47 2 94.5 5.5t97.5 3.5q35 -2 70.5 -1.5t71.5 4.5q20 2 41 2t41 -4q7 -2 14.5 -1.5t16.5 0.5q8 -2 14.5 -2t13.5 -2l4 -12t3 -11q6 -32 4.5 -63t-1.5 -62q0 -4 -1.5 -7t-2.5 -8q-17 -4 -34 -5
t-33 -3q-39 -1 -78.5 -1t-78.5 -2q-19 0 -37 -1.5t-35 -3.5q-7 -15 -8 -32.5t5 -45.5q7 -7 15 -7q32 -2 64.5 -3.5t64.5 0.5q22 1 42.5 0.5t41.5 -0.5q15 -11 19.5 -23.5t-0.5 -30.5q-3 -12 -3 -26v-46q-1 -4 -1.5 -7.5t-2.5 -8.5q-5 -2 -9.5 -3.5t-9.5 -3.5q-10 -1 -20 -1
t-20 -1q-2 0 -4.5 -1t-4.5 1q-17 5 -32 4t-32 -3q-5 0 -9 0.5t-8 0.5q-21 0 -42.5 -0.5t-44.5 -0.5q-1 0 -3 -1.5t-4 -3.5q0 -4 -1 -7.5t1 -7.5q2 -20 0 -41.5t3 -41.5q0 -1 1 -1t2 -1q7 0 12.5 -0.5t10.5 -2.5q5 0 10 -1.5t10 -1.5h22t22 2q26 4 52.5 3.5t54.5 -3.5
q23 -2 46.5 -3t46.5 4q4 2 8.5 -0.5t9.5 -2.5z" />
    <glyph glyph-name="F" unicode="F" horiz-adv-x="621" 
d="M46 674q12 13 26 17q14 2 30 4t32 2q46 2 93.5 2h93.5l27 2t26 1q33 2 66 2h66q11 0 21.5 -2t21.5 0q5 2 9 -0.5t9 -4.5q4 -12 7 -30.5t4 -40t0.5 -44t-3.5 -43.5q-5 -2 -8.5 -5t-8.5 -3l-18.5 -2t-17.5 -1h-102q-19 0 -38 -1l-38 -2q-14 0 -28.5 -1t-27.5 -1
q-4 0 -7.5 -0.5t-6.5 -0.5q-1 -2 -2.5 -3.5t-1.5 -3.5v-62q0 -5 3 -15q20 -2 40 -2.5t40 0.5q19 2 38.5 2t36.5 -5q21 -5 40.5 -2.5t38.5 -3.5q9 -22 11.5 -56.5t-2.5 -75.5q-5 -8 -13 -10.5t-17 -2.5q-16 0 -33 1t-34 -1q-6 0 -13.5 -1t-13.5 -3l-21 -2t-21 -1
q-17 -2 -33.5 -1t-33.5 1q-2 0 -5 -1t-7 -2q-1 -65 -1.5 -130.5t-0.5 -132.5q-5 -1 -10.5 -2.5t-9.5 -1.5q-22 0 -43 -2.5t-44 2.5q-5 1 -11 -0.5t-12 -1.5q-13 -2 -25 -2h-25q-9 0 -18.5 2.5t-17.5 7.5q-2 4 -3 8.5t-2 12.5v9v229.5t-2 230.5v41t-1 40q-2 23 -1 47t2 45z
" />
    <glyph glyph-name="G" unicode="G" horiz-adv-x="762" 
d="M684 24q-5 -2 -16 -2q-33 -2 -66.5 -2t-68.5 -1q-13 -2 -26.5 -2.5t-24.5 -4.5q-18 -6 -36.5 -6t-35.5 -1q-26 -1 -51 -0.5t-50 1.5h-17t-17 5q-1 1 -6 1l-27.5 2t-27.5 8q-28 17 -52 36.5t-44 46.5l-18.5 27.5l-18.5 27.5q-8 8 -11 21l-9.5 35t-6.5 37q0 6 -1 9
q-11 30 -10.5 60t5.5 59l4 25l4 24v12.5t2 11.5q6 27 17.5 52l22.5 51q5 10 11 16l22.5 22.5t25.5 19.5l30.5 21.5t33.5 21.5q16 8 32.5 12.5t33.5 7.5q15 3 29.5 3.5t29.5 1.5q8 2 17 2t16 1q21 5 40.5 4.5t40.5 -3.5q8 -1 17 -0.5t20 1.5l31.5 -8.5t35.5 -10.5
q13 -4 23.5 -12l21.5 -16q20 -15 40 -32t33 -42q5 -9 8.5 -18.5t8.5 -20.5q2 -8 1 -14.5t-9 -14.5q-17 -4 -35.5 -9t-37.5 -8q-13 -2 -25.5 -6.5l-24.5 -8.5q-5 -1 -8.5 -2t-5.5 -2q-10 1 -16 6t-11 11q-2 2 -4 6.5t-4 7.5q-10 19 -26 30t-35 18q-6 2 -12.5 3t-11.5 3
q-23 -2 -44.5 -7.5t-41.5 -15.5q-29 -12 -45 -35q-20 -22 -33 -48t-17 -56l-4 -19.5t-2 -19.5q-4 -32 2 -62.5t18 -59.5q10 -21 28 -33t39 -18q15 -4 29.5 -6t29.5 0h53t53 6q3 12 2.5 22.5t-2.5 22.5q-10 4 -19 2t-19 0q-8 1 -17.5 0t-17.5 1q-8 12 -8 23v21q-1 32 -1 52
t1 32.5t3 20t5 15.5q6 4 11 4q65 3 129 5.5t127 -0.5q7 -5 8 -12t1 -12q-2 -67 -2.5 -133t-1.5 -134q0 -14 -2.5 -29.5t-3.5 -31.5q-1 -4 -3.5 -8t-4.5 -11z" />
    <glyph glyph-name="H" unicode="H" horiz-adv-x="808" 
d="M473 660q14 16 31 18q35 5 69 6t69 -1q9 -1 19 -3t17 -3q17 -11 17 -31v-87v-97v-37q0 -9 -0.5 -19t-0.5 -20q1 -28 1 -70.5t-1 -87.5t-2.5 -85t-4.5 -63q-1 -11 -0.5 -19.5t0.5 -15.5t-3 -12.5t-10 -10.5q-12 -2 -23 -2t-21 -1q-11 0 -23 0.5t-23 -6.5q-2 -1 -7 -1h-94
q-5 0 -13 5q-3 14 -3.5 27t-0.5 26v164q0 7 -0.5 12.5t-0.5 12.5q-9 2 -17.5 3t-17.5 3q-8 2 -15.5 0.5t-14.5 -3.5q-29 -1 -57.5 -1h-57.5q-9 -2 -17.5 -1t-17.5 -3q-1 -2 -2.5 -6t-1.5 -8v-136q0 -18 1 -35.5t-1 -34.5q0 -10 -2.5 -18l-4.5 -15q-17 -5 -31.5 -4t-31.5 0
h-60h-56q-15 10 -15 20q0 20 0.5 39t0.5 39q0 17 1 34t1 33q0 13 -1.5 26.5t-1.5 27.5q0 108 -0.5 214t-0.5 214q0 7 0.5 12t0.5 10q6 8 13 11t17 3q18 0 34 0.5t33 -1.5q20 -2 39 -2.5t38 -0.5q4 0 8.5 -0.5t9.5 -1.5q2 -5 5 -8.5t4 -8.5q2 -16 3 -31t-3 -29q-2 -14 0 -27
q4 -29 3 -56.5t-1 -57.5q2 -3 5.5 -6.5t5.5 -7.5h70h71q18 0 35 -1t37 1q0 8 0.5 13.5t0.5 10.5q0 38 -0.5 76t-0.5 76v18.5t1 20.5z" />
    <glyph glyph-name="I" unicode="I" horiz-adv-x="355" 
d="M245 8q-47 -5 -90 -7.5t-85 -0.5q-8 1 -11 2.5t-17 9.5q0 14 -0.5 27t-0.5 25v104q0 4 0.5 8.5t-0.5 9.5q-3 17 -2 34l2 34q0 24 0.5 48t-1.5 49q-2 14 -1 28l2 28q0 9 -0.5 19t-0.5 21q0 15 -1 31t1 32q2 23 3 46t-3 47q-4 16 -1.5 32.5t3.5 33.5q1 13 10.5 20.5
t23.5 7.5h37q44 -3 82 -9h10q25 -1 34 -22q2 -6 3 -12.5t3 -14.5v-73q0 -16 -0.5 -32t3.5 -31q2 -4 2 -9.5v-11.5q0 -50 0.5 -98.5t0.5 -98.5v-103t-1 -102q0 -18 -2 -35t-3 -37z" />
    <glyph glyph-name="J" unicode="J" horiz-adv-x="612" 
d="M195 -5q-14 0 -29.5 3t-31 8.5t-29.5 12t-23 13.5q-21 13 -36 31t-20 44q-7 28 -9 61q-2 22 -2 43.5t-1 44.5q0 5 0.5 10t0.5 9q8 14 18.5 17.5t21.5 9.5q12 -3 26.5 -2.5t28.5 2.5q19 2 38 2.5t36 -3.5q8 -6 8 -13.5v-14.5q-1 -13 1.5 -26t6.5 -28q2 -8 7 -15.5
t16 -13.5h29q20 10 26 26.5t7 36.5q0 14 0.5 29.5t8.5 29.5v3q-5 30 0.5 60t5.5 60q-1 54 -0.5 105.5t0.5 105.5v31q15 8 26 17q43 1 86.5 1.5t86.5 -1.5q8 -6 11 -12.5t3 -14.5q5 -63 7.5 -129.5t-2.5 -129.5l-4 -84.5t-13 -84.5q-1 -8 -0.5 -16t-1.5 -14
q-8 -15 -10.5 -31.5t-5.5 -32.5q-4 -21 -13.5 -38t-21.5 -34q-3 -3 -5 -6.5t-4 -6.5q-5 -5 -7 -8.5t-7 -6.5q-23 -20 -50.5 -33t-59.5 -17l-59 -5z" />
    <glyph glyph-name="K" unicode="K" horiz-adv-x="866" 
d="M252 160q-1 -40 1 -77t-4 -75q-6 -2 -11 -3.5t-10 -1.5q-6 -2 -12 -2h-14q-19 -2 -37 -3t-37 -3q-19 0 -37 1t-37 8q-2 4 -5 9t-3 9q5 35 2 69.5t-3 69.5v107.5t-1 107.5v237v37q1 11 3 20t10 16q8 6 16.5 7t16.5 1l39 -4t37 -3q7 -1 14.5 -1h17.5q11 -1 21 -1.5t22 -2.5
q9 -35 9 -69v-61t1 -60v-23q21 16 37.5 34l33.5 35l33.5 32l33.5 33l34 34.5t37 33.5q22 -3 44 2t45 6q22 0 44 0.5t42 -1.5q24 -1 46 1t46 -2q4 -10 7 -13q-5 -6 -6 -6q-16 -9 -27.5 -22.5t-21.5 -27.5q-11 -17 -25 -31t-26 -28l-52 -58l-54 -58q-1 -2 -1 -3.5t-2 -4.5
q25 -51 53.5 -101.5t60.5 -101.5l61 -98t68 -94q-8 -14 -18 -18t-21 -4q-11 -2 -21 -2h-19h-64t-63 -1h-27q-26 9 -40 26.5t-24 37.5l-27 43.5l-27 42.5l-25 36.5l-24 35.5q-3 5 -7 10.5t-11 10.5q-26 -20 -47.5 -42.5z" />
    <glyph glyph-name="L" unicode="L" horiz-adv-x="639" 
d="M247 704q5 -4 8.5 -6t5.5 -4q9 -51 10.5 -99t1.5 -96v-122l4 -70l4 -69q0 -11 1 -20t2 -17q11 -5 19.5 -5.5t19.5 1.5q24 1 47 2.5t49 2.5q33 2 66.5 3t67.5 3h9q9 -2 16 -6t10 -13q2 -7 3 -13.5t1 -12.5q1 -62 0 -121q0 -4 -1 -8t-1 -9q-8 -7 -17 -9t-19 -3
q-38 -3 -76.5 -5.5t-77.5 -2.5q-29 0 -58 -1t-59 -1q-11 0 -22.5 0.5t-24.5 1.5q-8 0 -17.5 0.5t-19.5 -0.5q-26 -4 -52.5 -3t-53.5 1q-8 0 -16 1t-14 2q-12 10 -15 21t-3 22v60t-2 59q-1 74 -0.5 147.5t2.5 147.5q0 5 -1 10t1 10q5 42 4 81.5t2 79.5q2 8 1 15t-1 15
q3 20 22 23q9 0 18.5 1t18.5 1h31.5t32.5 5h9q9 -2 17 -3t16 -1q7 0 15 1t16 3z" />
    <glyph glyph-name="M" unicode="M" horiz-adv-x="961" 
d="M53 8q-9 10 -7 27q2 24 2 48t-3 50q-1 5 -0.5 9.5t0.5 9.5l2 30t1 29q1 66 1 128.5t2 127.5q0 10 1 20t1 20q1 11 1 23v24v52t3 53q4 2 8 5t9 5l12.5 4t14.5 5q13 -2 28 -1.5t29 -5.5q4 -2 8 -1t8 1h69.5t69.5 1q6 0 12.5 -0.5t16.5 -5.5q2 -4 3.5 -8.5l3.5 -10.5
q7 -38 15.5 -74.5t20.5 -73.5l29.5 -92.5l30.5 -89.5q1 -2 1.5 -3.5t1.5 -3.5q6 0 7 4t3 7q5 19 9 36.5t10 36.5q14 38 24.5 79t24.5 79q5 14 9 29t11 29q3 9 6.5 18l7.5 19q2 8 7 13t11 9q29 7 58 9t58 1t59 -0.5t59 -0.5q6 0 14 -3q1 -5 2.5 -9t2.5 -8q1 -11 2 -20t1 -17
q-2 -28 -2.5 -53t-1.5 -51v-70q1 -22 2.5 -43t1.5 -42q1 -67 1 -132v-132q0 -14 1 -28.5t1 -28.5q0 -6 -2 -13.5t-9 -13.5q-2 0 -5 -1t-6 -1h-141q-3 0 -10 4q-6 28 -5 56t-1 57q-2 27 -3.5 54.5t-1.5 55.5q-10 -5 -13.5 -12.5l-6.5 -13.5q-14 -38 -33.5 -74l-39.5 -72
q-8 -14 -17 -26.5t-18 -26.5q-9 -1 -28.5 -1.5t-41.5 -0.5h-43t-33 1q-21 26 -35 55l-29.5 63l-29.5 63q-15 28 -32 64q-3 -15 -3 -20q1 -22 -1.5 -43t0.5 -42q-5 -25 -4 -49.5t0 -50.5q0 -9 -2 -18t-3 -21q-7 -2 -13 -4t-11 -2h-163v0z" />
    <glyph glyph-name="N" unicode="N" horiz-adv-x="809" 
d="M52 1q-3 32 -5.5 63.5t-2.5 60.5v189v49q0 69 0.5 136.5t0.5 135.5q0 13 3.5 22.5t17.5 19.5q42 8 85 7t86 -6q12 -14 24 -26t23 -26l29 -37.5l30 -37.5l68.5 -82l66.5 -81q5 -2 7 -6t7 -8q2 12 2 23t-1 19q-3 15 -3 30t-1 29v85q-2 18 -3.5 38.5t-3.5 38.5v24q3 4 7 7.5
t6 8.5q46 2 91 2t92 -1l3 -7.5t1 -7.5q1 -8 1 -16.5v-17.5q0 -14 2.5 -28t9.5 -27q-3 -21 -4.5 -42t3.5 -42l2 -10t-1 -10q-2 -11 -2.5 -23t2.5 -23q-4 -14 -1.5 -30.5t-1.5 -31.5q-2 -8 0 -18t3 -19q2 -9 -2 -17.5t-1 -17.5q3 -7 2 -12q-3 -14 -3 -28t1 -28l2 -28.5
t-2 -28.5q-3 -15 -1.5 -32t3.5 -34q3 -24 2 -48t-8 -48q-12 -5 -22.5 -6.5t-21.5 -1.5q-26 -2 -53 -2h-53q-27 0 -44 20l-21 27.5t-20 26.5q-20 26 -37 52.5t-36 49.5q-20 22 -35 43.5l-30 44.5q-3 7 -10 13q-16 18 -30 36t-25 40q-1 2 -3.5 3t-4.5 3q-2 -4 -2 -6v-72t4 -73
q2 -13 2.5 -26.5t0.5 -27.5v-131q-5 -4 -8 -7.5t-5 -5.5q-5 -3 -11 -3q-23 -2 -45 -3.5t-45 -3.5q-9 0 -18.5 -1.5t-18.5 -2.5q-6 -1 -10 -1t-8.5 1t-10.5 4t-15 8z" />
    <glyph glyph-name="O" unicode="O" horiz-adv-x="773" 
d="M51 478l11 32l10 30q2 5 3.5 10t4.5 9q17 23 35.5 43.5t44.5 34.5q11 5 21 11.5t19 11.5q3 2 7 3t6 3q26 5 51.5 14t52.5 12l19.5 3.5t19.5 1.5q11 2 22 2.5t22 2.5q25 3 48.5 -0.5t47.5 -7.5q22 -5 41 -12.5t38 -18.5l40.5 -24t37.5 -24q24 -16 37.5 -37.5t21.5 -49.5
q8 -27 13 -55t9 -57q3 -26 3 -52t-2 -54q-2 -18 -4.5 -32t-5 -26.5t-6.5 -25.5l-9 -29q-1 -4 -2.5 -7.5l-3.5 -8.5t-5.5 -10t-5.5 -10q-8 -17 -21.5 -32l-25.5 -28q-15 -16 -32.5 -30.5t-38.5 -25.5t-44 -18t-46 -15q-40 -11 -80.5 -11.5t-82.5 -0.5q-28 6 -56.5 9t-55.5 15
q-47 24 -80 59t-52 85q-26 63 -28 134q0 5 -0.5 9.5t-2.5 9.5q-6 21 -5 40.5t-1 40.5q0 9 5 22q4 14 6.5 27.5t-1.5 26.5zM255 395q0 -5 0.5 -12t-1.5 -14q-6 -19 -7 -37t0 -38q2 -27 13 -49t26 -42q8 -11 21 -18t27 -12q8 -1 15 -2.5t15 -1.5q62 -9 114 29q17 12 28 27.5
t13 38.5q2 8 3.5 16t1.5 16q1 19 0.5 37.5t-0.5 36.5q0 35 -12 64t-34 55q-12 13 -25 20.5t-30 7.5q-13 0 -23 0.5t-21 -0.5q-41 -4 -77 -31q-11 -9 -18 -19.5t-12 -24.5q-5 -11 -8 -22t-9 -25z" />
    <glyph glyph-name="P" unicode="P" horiz-adv-x="689" 
d="M263 240q-2 -14 -3.5 -23.5t0.5 -19.5l2 -80.5t1 -82.5q0 -27 -21 -31q-9 -3 -17 -3h-145q-11 0 -19 3.5t-16 15.5q0 5 -1 12.5t-1 14.5q2 56 3.5 111t1.5 110v149q0 15 1 31t1 31t-0.5 29t0.5 27q2 17 0.5 32t-2.5 32q0 15 2 28.5t2 28.5q0 6 3 12t5 11q11 6 21 9t23 -1
q3 -1 6.5 -1h5.5q17 5 33.5 1.5t33.5 -1.5h9q27 -11 53.5 -9t52.5 2q38 -1 75.5 -0.5t75.5 -0.5q24 0 47 -7t44 -15q23 -11 35.5 -29t23.5 -38l7.5 -13t6.5 -13q2 -8 4.5 -14.5t4.5 -14.5q1 -16 1 -31v-30q0 -6 -0.5 -11t-0.5 -11q1 -32 -10.5 -59.5t-25.5 -53.5l-21 -18
t-20 -17q-65 -34 -135.5 -48t-146.5 -14zM388 463q-2 8 -4 17.5l-4 18.5q-11 10 -24.5 13t-25.5 3q-14 0 -30.5 1t-31.5 -7v-33.5t-2 -33.5q0 -3 1 -6.5t2 -8.5q18 -7 36.5 -3.5t35.5 8.5q13 2 25 8t22 23z" />
    <glyph glyph-name="Q" unicode="Q" horiz-adv-x="802" 
d="M262 697q26 0 53.5 0.5t54.5 4.5q36 5 71.5 3t70.5 -13q5 -3 10 -4t9 -3q21 -11 42.5 -21t41.5 -21l24.5 -16.5t23.5 -18.5q17 -11 26.5 -28.5t16.5 -34.5q6 -14 13 -27.5t9 -28.5q5 -15 9.5 -30t2.5 -33v-26q0 -14 2 -27.5t0 -25.5q-8 -28 -13 -57t-15 -56l-11.5 -35
t-14.5 -34q-5 -6 -7.5 -12.5t1.5 -16.5q7 -9 16.5 -15t20.5 -11q28 -13 47 -42q-4 -29 -18 -54l-28 -51q-9 -3 -13 -6q-4 -1 -7.5 -1.5t-8.5 -2.5q-14 6 -27 12.5t-26 15.5q-6 3 -11 6t-8 8q-12 12 -26.5 20t-26.5 19q-19 2 -29 -5q-17 -11 -35 -14l-36 -6q-3 0 -6 1t-6 1
q-9 -7 -16 -10q-2 0 -4 -0.5t-7 -0.5h-24.5t-25.5 1q-24 2 -48.5 3.5t-50.5 3.5q-36 3 -67 19t-59 35q-17 14 -31.5 28.5t-23.5 33.5q-6 11 -12.5 21.5t-10.5 20.5q-8 17 -14 32.5t-7 34.5q0 17 -4.5 32.5t-8.5 32.5q-1 5 -2.5 8.5t-0.5 7.5q5 21 1.5 40t1.5 40q6 23 8 47.5
t6 47.5q5 23 12 44t19 40q2 2 3.5 5.5t3.5 5.5q11 8 18 18.5t13 20.5q2 5 6 8.5t8 5.5l36 21.5t37 20.5q2 2 5 3t6 3q9 2 18.5 5zM332 209q0 12 2 16q13 40 44 73q19 18 41 6q4 0 6.5 -0.5t7.5 -2.5q13 -8 28 -14.5t26 -17.5q5 -4 11 -6.5t12 -5.5l4 2q1 2 2.5 4t2.5 4
q5 28 5.5 55t-1.5 52q-2 32 -13 60.5t-32 54.5q-17 23 -45 29q-24 6 -46.5 3t-43.5 -9q-29 -8 -49 -27.5t-32 -48.5q-8 -21 -14 -42.5t-4 -43.5q2 -14 -2 -30q-2 -34 9.5 -60t30.5 -51q30 -34 78 -36l-14.5 19.5t-13.5 16.5z" />
    <glyph glyph-name="R" unicode="R" horiz-adv-x="797" 
d="M335 275q-22 2 -41.5 -1t-38.5 -8q-10 -12 -5 -27q2 -11 1.5 -19.5t-3.5 -17.5q-1 -5 -0.5 -11t0.5 -14v-97q0 -16 1 -30.5t1 -32.5q-2 -3 -5.5 -7t-5.5 -9q-34 -5 -68 -6t-67 2h-22q-6 0 -9.5 0.5t-7 2t-8 4t-12.5 7.5q-1 23 -1 45v46q0 48 -0.5 94.5t-0.5 94.5v104v200
v54q0 8 1 16.5t7 16.5l5 2.5t6 1.5q15 1 29.5 1.5t31.5 0.5h177q9 0 18 -0.5t19 -1.5q6 0 12 -0.5t11 0.5q32 5 63.5 2.5t62.5 -5.5q11 -1 20.5 -4t18.5 -7q6 -2 14 -5.5t14 -6.5q56 -28 75 -86q12 -31 13.5 -62.5t-2.5 -63.5q-8 -48 -26 -88q-9 -20 -21.5 -35.5
t-32.5 -23.5q-6 -6 -10 -8q8 -14 13.5 -25.5t13.5 -21.5q15 -20 25 -41.5t22 -43.5l28 -54l29 -56q1 -8 4.5 -19.5t-0.5 -23.5q-16 -7 -34 -2q-12 5 -22 5.5t-21 0.5q-28 0 -56 0.5t-54 0.5q-8 0 -14.5 1.5t-11.5 7.5q-14 30 -30 60.5t-34 59.5q-5 6 -7 13t-6 14q-2 4 -4 9
t-6 9q-7 8 -11 16.5l-8 17.5q-6 14 -12.5 27.5t-17.5 26.5zM255 421q12 -3 17 -3q20 0 38 0.5t36 0.5q8 2 15.5 2t14.5 1q29 4 40 33q13 37 -22 67q-43 6 -79.5 5.5t-59.5 -8.5v-98z" />
    <glyph glyph-name="S" unicode="S" horiz-adv-x="700" 
d="M216 234l8 -8t8 -7q2 -14 5 -30t11 -28q11 -11 22 -13t22 -2q13 0 25.5 1.5t22.5 9.5q17 11 20 35q-2 17 -11.5 28.5t-23.5 21.5q-14 6 -26.5 13t-26.5 12q-24 8 -45.5 19.5l-43.5 22.5l-33.5 16.5l-33.5 17.5q-35 37 -55 81t-15 98q8 22 18 43t18 43q22 20 44 38t49 32
q32 17 65 24t68 9q24 0 49.5 -0.5t50.5 -3.5q32 -5 61.5 -17t55.5 -29q21 -14 34.5 -34t21.5 -45q8 -22 12 -44q2 -9 3 -18t-5 -19q-6 -4 -13.5 -7t-15.5 -3q-20 0 -39 -1t-38 4q-13 -3 -26.5 -3h-27.5q-9 0 -17.5 2t-17.5 5q-8 15 -13 32.5t-20 31.5l-14 6t-14 7
q-8 -1 -17 -2.5t-17 -2.5q-14 -12 -18.5 -28t-2.5 -31q6 -22 19.5 -32t30.5 -15q8 -2 15 -3.5t15 -2.5q38 -8 74 -20.5t71 -27.5q12 -4 22.5 -10.5l21.5 -13.5q24 -14 36 -35t16 -47q3 -20 4.5 -38.5t-1.5 -38.5q-2 -19 -3 -37.5t-5 -35.5q-5 -16 -11.5 -32t-18.5 -28
l-19 -21.5l-18 -21.5q-23 -22 -50.5 -33.5t-57.5 -16.5q-22 -5 -44.5 -6.5t-44.5 -1.5q-61 3 -117 0q-66 -1 -116 41q-11 8 -21 17.5l-18 16.5q-7 13 -12 23.5t-11 21.5q4 27 0 54.5t2 53.5q10 10 20 11.5t20 1.5h137v0z" />
    <glyph glyph-name="T" unicode="T" horiz-adv-x="708" 
d="M261 6q-2 4 -4.5 7l-7.5 9v47.5t-1 47.5q0 16 -0.5 29t-5.5 27q-3 14 -2 27.5t1 26.5v128q0 5 1.5 11t1.5 11q1 13 2 24.5t-1 22.5q-3 18 -4 35t1 35q0 5 -0.5 9t-0.5 9q-4 2 -8 3.5t-8 1.5l-21 2t-21 1h-27.5t-26.5 -1q-25 -3 -48.5 -0.5t-47.5 6.5q-4 18 -5 34.5
t0 33.5q3 31 -1 60q0 8 1 14.5t9 14.5q8 3 18 6t21 3q30 1 59.5 2.5t58.5 3.5q29 0 60 1t60 -1q57 -7 112.5 -6.5t112.5 -2.5q26 -1 51.5 -1.5t51.5 -1.5q5 0 9.5 -1t9.5 -2q2 -5 5 -9.5t3 -9.5q2 -32 6 -64t2 -65q0 -3 -3 -6q-17 -8 -35.5 -10t-36.5 1q-29 5 -57.5 3
t-56.5 -2q-11 0 -24 -5q-1 -11 -2 -20.5t1 -20.5q0 -16 -1 -34t-1 -35q0 -18 1 -34t-2 -33q-2 -14 -3.5 -26.5t0.5 -26.5q2 -58 0 -116t-2 -116v-15q-2 -11 -5 -18.5t-14 -13.5h-175z" />
    <glyph glyph-name="U" unicode="U" horiz-adv-x="810" 
d="M296 245q35 -15 64.5 -16t68.5 13q19 14 29.5 35t14.5 45q5 27 6.5 54t3.5 53q2 31 1 62t1 63q1 30 0.5 59.5t-0.5 61.5q5 4 8.5 8t6.5 8l20 2t19 2q5 2 13 2q29 -5 57 -4t56 -1q2 -1 5 -1.5t5 -2.5q19 -11 19 -32v-119.5t-1 -120.5q0 -17 -3 -35.5t-5 -36.5
q-2 -20 -6 -38.5t-6 -38.5q-1 -2 -1 -5.5t-2 -5.5q-6 -19 -12 -36l-12 -34q-4 -11 -9 -20t-13 -19q-6 -7 -10 -16.5t-9 -17.5l-24.5 -22.5l-24.5 -23.5q-22 -19 -47.5 -32.5t-56.5 -17.5q-7 -1 -14 -3.5t-18 -5.5q-2 0 -5.5 -1t-7.5 1q-14 5 -29 2t-30 1q-12 -5 -25 -3
t-24 5q-29 7 -56.5 15.5t-54.5 22.5l-23 11t-20 11q-13 14 -25.5 26l-27.5 26q-1 1 -3.5 7t-5.5 12q-10 14 -16 30.5t-11 33.5q-4 10 -6 22t-7 26q1 2 2 9.5t2 18.5q-9 25 -9 51t-2 53v74q0 8 2 12q6 20 4.5 39t-3.5 39q0 23 -0.5 46t-0.5 46q0 13 3 21t11 22l21.5 7.5
t20.5 5.5q19 10 34 0q19 -8 46 -8q14 2 30.5 -1.5t33.5 -7.5q2 -6 5 -11.5t5 -8.5q1 -52 1.5 -100t2.5 -96q2 -41 5.5 -81.5t14.5 -81.5q4 -14 8 -30t16 -29z" />
    <glyph glyph-name="V" unicode="V" horiz-adv-x="858" 
d="M501 6q-26 -2 -50 -2.5t-48 -2.5l-14.5 -2l-15.5 -2l-75 4q-22 6 -28 23l-16 43.5l-15 41.5q-1 4 -5 12q-17 36 -29.5 73t-28.5 73l-23.5 60l-22.5 59q-14 40 -29 78.5t-32 77.5q-8 22 -17 43.5t-17 43.5q-2 8 -6 15.5t-7 15.5q3 6 6 9q10 23 31 19q14 -1 27.5 -1.5
t26.5 -0.5l46 -2t49 -2q14 -2 20.5 -5t19.5 -14q29 -115 62 -227t80 -222q4 4 5.5 5t3.5 3l16.5 53.5l16.5 52.5q3 11 6.5 20.5t8.5 20.5q17 48 31.5 98l28.5 100q12 46 30 93q0 5 2 7.5t4 6.5q13 9 28 9h72.5t72.5 -1q14 0 27 -8q5 -6 4.5 -11.5t-3.5 -10.5l-15.5 -34
l-14.5 -34l-30 -80.5l-29 -79.5l-14.5 -38t-13.5 -37l-33.5 -102l-33.5 -101q-10 -29 -18 -57t-19 -55q-5 -16 -22 -28z" />
    <glyph glyph-name="W" unicode="W" horiz-adv-x="1095" 
d="M859 0l-8.5 -3.5t-8.5 -1.5h-67q-2 0 -5.5 1t-6.5 -1q-34 -2 -67.5 2t-66.5 4q-1 0 -2 1t-2 1q-8 4 -11 11.5l-6 15.5q-3 17 -6.5 34t-9.5 34q-3 17 -7.5 33t-9.5 32l-30 97.5l-29 97.5q-2 4 -5 13q-14 -10 -16.5 -23.5t-7.5 -25.5q-10 -25 -18 -53q-5 -12 -9 -24t-8 -26
q-5 -14 -9.5 -28t-10.5 -28q-4 -12 -7 -24.5t-7 -25.5q-5 -13 -9.5 -27t-9.5 -26q-5 -13 -7 -27t-13 -25q-20 -2 -38.5 -4.5t-38.5 1.5q-12 3 -25.5 1.5t-27.5 -2.5q-11 0 -21 -0.5t-18 0.5q-6 0 -10.5 2.5t-9.5 4.5l-17 47t-13 49q-10 38 -18.5 77t-19.5 78l-28 109.5
l-28 110.5q-15 71 -27 139q-2 15 -1 30.5t15 28.5q5 0 10.5 -0.5t10.5 -0.5t10 1.5t10 2.5h15q19 -6 39 -4.5t39 1.5q11 0 21.5 -1.5t20.5 -9.5q7 -23 12 -47.5t11 -47.5q7 -26 12.5 -51t12.5 -51q8 -23 12 -47.5t11 -48.5q9 2 13 8t6 13q6 21 15 43t14 43q4 20 11 38t13 36
q8 26 16.5 50.5t15.5 50.5q3 7 6.5 12.5t10.5 8.5q26 3 50 1.5t50 2.5q8 2 17.5 -0.5t19.5 -3.5q7 1 13 2l12 2q11 -3 20.5 -8.5t14.5 -14.5q4 -8 6.5 -14.5t4.5 -14.5q18 -52 32 -105l27 -107q4 -16 10 -29q0 -2 2.5 -3.5t4.5 -4.5l28.5 83.5t21.5 85.5q2 19 6.5 39l8.5 39
q2 15 7.5 28t21.5 21q41 5 84 5t86 2q8 -5 9.5 -11.5t1.5 -13.5q-2 -34 -7.5 -67.5t-12.5 -67.5l-13.5 -64.5l-12.5 -62.5q-5 -26 -8 -50.5t-8 -49.5l-21 -102t-19 -102q-1 -4 -1 -9t-1 -12q-3 -34 -17 -73z" />
    <glyph glyph-name="X" unicode="X" horiz-adv-x="875" 
d="M569 349q2 -4 2 -6t2 -5l18.5 -33.5t18.5 -34.5l22 -35t22 -34l31 -45.5t32 -42.5q17 -18 28 -39.5t24 -41.5q1 -2 1 -5v-5q-1 -8 -5.5 -11t-9.5 -5q-4 -1 -7.5 -1h-6.5h-90q-11 0 -20 -0.5t-19 -1.5q-17 -2 -31.5 -2.5t-29.5 0.5q-17 16 -31 33.5l-28 34.5l-20.5 27.5
l-20.5 26.5q-6 8 -11 15.5l-10 15.5q-8 21 -32 40l-59 -93t-61 -92q-8 -4 -16 -5t-19 -1q-42 0 -83.5 -1t-83.5 1q-8 0 -15 1t-14 1q-15 11 -6 25l28 37t30 37l24.5 30.5l26.5 31.5q8 16 19 28.5t21 26.5l19.5 25.5t14.5 25.5q11 22 25.5 41.5t22.5 43.5q1 1 0.5 2.5
t0.5 5.5l-4.5 11.5t-6.5 13.5q-22 26 -39 54.5t-40 54.5q-7 8 -12.5 17l-10.5 18q-22 32 -42.5 65l-43.5 67q4 6 8 17q22 2 41.5 1l39.5 -2q14 -2 28 -2h28q11 0 23 1l23 2q20 0 32 -14l35.5 -54.5t31.5 -55.5q8 -19 19 -33l22 -28h7q0 -1 2 3l48 73l47 75q10 15 15 25
q11 8 21 8h24h12t11 -2q11 -2 22 -2.5t22 -0.5q21 0 42.5 0.5t43.5 0.5q8 0 19 -3q0 -5 0.5 -8.5t-0.5 -6.5q-2 -5 -5 -11.5l-6 -13.5q-20 -24 -31 -54q-12 -33 -30 -59q-15 -20 -26 -41.5l-22 -42.5q-14 -23 -26 -45t-26 -44z" />
    <glyph glyph-name="Y" unicode="Y" horiz-adv-x="837" 
d="M482 13q0 -1 -2 -2q0 -1 -3 -5q-23 -2 -45 -1.5t-44 -3.5q-22 -3 -45 -3.5t-46 -2.5q-13 7 -17 22q-6 24 -4 47q5 26 4.5 52t1.5 50q1 14 2 25.5t1 22.5q0 14 -1 29l-2 29q-4 6 -8.5 13.5t-8.5 13.5q-14 20 -27.5 41.5t-28.5 41.5q-4 6 -7.5 12t-8.5 11q-14 15 -27.5 31
t-26.5 33q-34 45 -64.5 93t-56.5 98q1 5 2 7.5t2 7.5q5 2 10 4.5t11 2.5q20 -2 40 -3t40 3q6 2 12 -1t13 1q23 -2 45.5 1t45.5 -1q12 -8 19.5 -19l15.5 -22l84 -135q5 -6 9 -13.5t11 -15.5q22 28 41 55.5l38 53.5l33.5 51t38.5 45q9 5 17.5 5.5t19.5 0.5q23 0 48 1.5
t48 -3.5q10 -2 20 -1t21 1h11t11 -1q14 -2 18 -10.5t-2 -18.5q-5 -9 -12 -16.5t-12 -15.5l-39 -58l-39 -57l-17.5 -29.5l-17.5 -28.5q-4 -9 -8 -16.5t-12 -15.5q-2 -2 -4.5 -5.5t-4.5 -7.5q-9 -24 -23.5 -43.5t-28.5 -42.5q-3 -3 -5 -11q-5 -10 -9.5 -18t-12.5 -16
q-5 -6 -7.5 -13t-6.5 -12v-237z" />
    <glyph glyph-name="Z" unicode="Z" horiz-adv-x="688" 
d="M401 537q-22 2 -42 1.5t-40 -1.5h-81h-76h-85l-5.5 5.5t-4.5 5.5q-5 45 -3.5 76t8.5 55q4 1 8 2.5t9 1.5h89q14 2 26.5 2.5t26.5 1.5q7 1 12.5 1h12.5q44 2 87.5 3t88.5 3q31 2 62.5 1.5t61.5 1.5q17 0 32 -2t32 -7q5 -1 9 -4t10 -6q2 -29 4.5 -56.5t4.5 -54.5
q-5 -14 -12 -23.5l-14 -18.5l-50.5 -53.5l-50.5 -55.5q-18 -20 -37.5 -39t-36.5 -42q-6 -10 -13 -17.5l-14 -15.5l-54.5 -60l-54.5 -60q-2 -1 -3 -8q19 -2 39 -1.5t39 0.5h82q19 0 39.5 0.5t40.5 -0.5l40 -2t37 -3q8 -4 11 -8.5t3 -10.5q2 -29 3.5 -57.5t-0.5 -56.5
q-1 -4 -2 -8.5t-3 -9.5q-5 -1 -9 -2.5t-8 -1.5q-11 -1 -21 -1h-21q-6 -1 -11 -0.5t-11 -0.5q-16 -5 -30.5 -5.5t-28.5 -0.5q-13 0 -24.5 0.5t-22.5 -0.5q-31 -1 -61.5 1.5t-60.5 -2.5q-3 -1 -6 -0.5t-8 0.5q-16 1 -33.5 1t-33.5 -2q-17 -2 -32 -2h-30h-42.5t-41.5 -1
q-25 0 -43 11q-2 2 -3.5 4.5t-1.5 4.5q-2 21 -4 39.5t6 38.5q2 5 2.5 12t0.5 13v67q4 4 7.5 9t8.5 10l24 20.5l24 20.5l51.5 43.5l49.5 44.5q24 20 44.5 42t38.5 45q11 13 22 24l22 23l21.5 25.5l21.5 24.5q3 3 4.5 6.5z" />
    <glyph glyph-name="bracketleft" unicode="[" horiz-adv-x="449" 
d="M51 760q5 3 11 7l14 9q21 0 43.5 -0.5t45.5 0.5q30 2 59 3.5t58 1.5q13 2 25 2t25 -2q6 -6 8 -9q2 -4 4.5 -7t4.5 -8v-37q0 -10 -1 -21t1 -22q2 -10 -0.5 -20t-5.5 -20q-4 -23 -29 -27h-15t-15 -2q-11 0 -23 -3q-2 0 -4.5 -1t-5.5 -2q0 -6 -0.5 -11t-0.5 -10v-53.5
t-2 -55.5q0 -29 -1.5 -58.5t-1.5 -59.5q-2 -38 -1 -76t1 -76q0 -4 1 -9t1 -11l2 -14t-1 -13q-2 -16 0.5 -32.5t1.5 -33.5q4 0 8 -1.5t8 -1.5q7 0 14.5 1t15.5 1h16.5t18.5 -5q11 -12 16.5 -26.5t1.5 -31.5q-3 -17 -2.5 -33.5t-1.5 -35.5q0 -5 1 -11t-1 -12q0 -3 -1.5 -8
t-3.5 -9q-2 -1 -5.5 -3.5t-5.5 -2.5q-20 -2 -40 -3.5t-38 -2.5q-33 -2 -66.5 -3l-67.5 -2h-33q-15 -2 -24.5 8.5t-11.5 25.5v12v148q0 37 -1.5 74t-3.5 73q0 25 0.5 50.5t-3.5 51.5q-4 35 -5 69t-4 69q-1 32 0 65q3 54 0 110q-2 28 2 52.5t18 52.5z" />
    <glyph glyph-name="backslash" unicode="\" horiz-adv-x="436" 
d="M12 686q4 4 6.5 7t6.5 7q9 9 18.5 12.5t21.5 2.5q12 -2 25 -3.5t25 -3.5q8 -1 17.5 -2.5t19.5 -3.5q8 -4 11.5 -11.5t8.5 -15.5q0 -11 3 -23t8 -23q13 -29 17 -55q5 -32 12 -62t16 -59q8 -26 13.5 -51t12.5 -50q4 -16 7 -30t9 -28q3 -12 3 -24q0 -8 3 -12q6 -9 8 -19.5
l4 -21.5q0 -9 4 -19q8 -22 13.5 -43.5t10.5 -44.5q2 -13 7.5 -26t10.5 -27l4 -18.5t-1 -22.5l-2 -4l-3 -6l-4 -4l-4 -4q-26 -5 -51 -7t-54 4q-3 2 -7.5 7t-7.5 9q-5 14 -8 23.5t-7 18.5q-2 8 -2 12q-4 26 -11.5 51t-16.5 47l-13 34.5t-10 33.5q-9 40 -21 81q-6 23 -13 45
l-15 45l-27.5 85t-24.5 87l-12 49t-11 49v14v0z" />
    <glyph glyph-name="bracketright" unicode="]" horiz-adv-x="442" 
d="M154 598q-13 5 -23 8t-21 7q-11 -2 -25.5 -1t-30.5 6q-2 3 -5 6.5t-3 7.5v54t2 50q0 5 0.5 9t0.5 6q6 12 13.5 16t17.5 4h69q18 0 37 -0.5t38 4.5q5 1 10 1h10q15 0 31.5 -0.5t33.5 -0.5q8 0 18 -1.5t19 -6.5q4 -17 7 -33t7 -32q0 -4 1 -6t1 -4q-5 -17 -2 -32t2 -31v-64
q0 -5 -1 -10t-1 -10q-1 -5 -1.5 -10t-0.5 -10q0 -11 1 -22t0 -22q-2 -11 -1 -21l2 -21q2 -24 1.5 -48.5t-4.5 -47.5q-4 -20 -5 -40t-3 -41v-273v-81q-3 -3 -7.5 -6.5t-7.5 -8.5q-13 -3 -25.5 -5t-27.5 -2q-35 -1 -69 -1h-69q-17 1 -34 3t-36 4q-24 3 -24 29q-1 19 0 34
q4 22 4.5 42.5t-0.5 42.5q0 5 0.5 10t0.5 9q5 8 11 10.5t13 2.5q14 1 25 1h22q10 0 13 1.5t14 11.5q3 4 3 8v171v47v144q0 10 1 19.5t2 20.5q0 2 1 5t-1 5q-5 17 -3 34.5t0 34.5q0 5 -0.5 11.5t-0.5 11.5z" />
    <glyph glyph-name="asciicircum" unicode="^" horiz-adv-x="581" 
d="M185 694q36 13 69 11.5t65 -3.5q27 0 31 -22q6 -19 15.5 -38t15.5 -39q12 -43 30 -83.5t42 -77.5q16 -24 29.5 -49l27.5 -49q-2 -5 -3 -8t-3 -8q-12 -4 -24.5 -6.5t-23.5 -7.5h-96q-8 6 -14 13.5t-9 18.5l-12.5 25t-11.5 27q-7 14 -12.5 27l-11.5 28q-6 13 -11 26t-7 27
q-2 6 -4 11t-4 13l-48.5 -98.5l-46.5 -97.5q-6 0 -12 -1t-12 1q-10 0 -20.5 -2l-21.5 -4q-20 -5 -35 -4.5t-40 7.5q-4 3 -4 7.5t2 8.5l6 16t7 16q8 20 16.5 38l17.5 37l46 107.5t51 104.5q5 7 9 14t7 14z" />
    <glyph glyph-name="underscore" unicode="_" horiz-adv-x="622" 
d="M70 61q9 5 17.5 7t16.5 2q28 -1 55.5 -1.5t53.5 -1.5l68 -4t68 -1q12 0 23.5 -0.5t23.5 -0.5q26 -1 52 -0.5t52 -0.5q12 0 24 -0.5t24 -0.5q15 -3 23 -16q1 -8 3 -27.5t3 -41.5t1.5 -42t0.5 -27q-5 -3 -7.5 -6t-7.5 -6q-29 5 -57 5.5t-57 -1.5q-10 0 -19.5 -1.5
t-20.5 -2.5q-6 -1 -12 -1t-14 -1h-254h-24.5t-22.5 1q-31 2 -33 33v15t1 15q2 18 3.5 36.5t1.5 37.5q0 9 4 16.5t10 15.5z" />
    <glyph glyph-name="a" unicode="a" horiz-adv-x="822" 
d="M740 19q-2 -5 -5 -9.5t-5 -6.5q-6 -3 -11 -3h-117q-12 0 -23.5 -1t-26.5 -2q-17 7 -23 27l-12 34.5l-13 35.5q-5 8 -8 16q-8 1 -27 2t-42.5 1.5t-49.5 0.5t-49.5 -0.5t-41 -1.5t-23.5 -2q-11 -21 -20.5 -44.5l-21.5 -51.5q-1 0 -5.5 -3t-10.5 -8q-1 0 -3 -1t-5 -1
q-10 -1 -21 -0.5t-22 -0.5q-11 0 -20.5 -1t-20.5 -2q-16 -3 -36 0q-7 1 -14.5 0.5t-14.5 -0.5q-8 -2 -13 -1t-11 7q1 12 3.5 25.5t7.5 27.5q13 35 23 71t23 71l25 78t28 78l21.5 61t23.5 60q5 11 7.5 21l5.5 21q11 40 28 78.5l33 76.5q5 14 15 19.5t25 5.5h68.5t67.5 2
q11 0 21.5 -1t19.5 -1q24 0 34 -22l6.5 -15t5.5 -16l38 -88t32 -90q11 -30 20 -60t19 -60q17 -54 34.5 -104t39.5 -100q6 -18 11 -36t13 -36q9 -19 17 -51zM380 433q-12 -15 -22 -47t-17 -82q26 -4 49.5 -3t37.5 5q-11 32 -23 63.5z" />
    <glyph glyph-name="b" unicode="b" horiz-adv-x="751" 
d="M51 680q8 6 16.5 7t15.5 1q20 0 41.5 -0.5t41.5 -0.5h31.5t31.5 1h21q24 -2 46.5 -1t46.5 0q26 -1 52 1t55 0q24 -2 48.5 -2.5t50.5 -6.5q35 -8 64 -36t32 -72q2 -14 1 -29.5t1 -29.5q0 -14 -5 -26.5t-9 -24.5q-1 -5 -4.5 -8.5l-7.5 -7.5q-15 -20 -30.5 -38t-34.5 -34
q-3 -3 -3 -5q1 -6 5.5 -6t6.5 -2q18 -7 33 -17t29 -23q46 -40 49 -106q2 -30 -5 -55t-19 -50q-3 -3 -3 -7q-8 -24 -26 -38.5t-38 -25.5q-4 -1 -7.5 -2.5t-6.5 -1.5q-8 1 -14 -4.5t-12 -7.5q-15 2 -27.5 3.5t-25.5 -6.5q-11 -5 -22.5 -5.5t-22.5 -0.5t-22.5 0.5t-21.5 -5.5
q-3 -2 -7.5 -2h-9.5h-114h-145h-34q-23 0 -39 11q-6 17 0 31q3 8 3.5 17t0.5 20v88q-2 16 -3.5 30.5t-1.5 30.5q-2 35 -2 69.5t-1 70.5q0 23 -1 45.5l-2 44.5q-3 34 -2.5 66.5t0.5 64.5q-2 12 -2 23.5v22.5q0 24 8 39zM431 180q11 17 12 35.5t-4 38.5q-7 19 -29 30h-33
t-34 -2q-19 -2 -37.5 -0.5t-35.5 -6.5q-5 -10 -4 -19t1 -17q0 -11 1 -21l2 -20q2 -8 1.5 -17.5t5.5 -17.5q4 0 7.5 -1t6.5 1q15 2 31 2.5t32 0.5h40q10 0 18 3t19 11zM266 445q0 -5 0.5 -8.5t2.5 -9.5q20 2 37.5 2.5t34.5 2.5q18 2 35 0.5t34 3.5q20 20 23 33t-9 42
l-18.5 18t-22.5 11q-29 -2 -58 -1t-59 -5v-89z" />
    <glyph glyph-name="c" unicode="c" horiz-adv-x="724" 
d="M664 534l-3 -9q-8 -11 -12 -15q-27 -17 -53.5 -27.5t-50.5 -18.5q-15 -2 -28 -3.5t-26 -2.5q-7 1 -13.5 6t-12.5 11q-14 20 -32.5 29t-40.5 13q-50 4 -93 -23q-23 -17 -35 -39q-9 -15 -16.5 -29.5t-12.5 -30.5q-7 -25 -12 -49.5t1 -49.5q5 -14 6 -25.5t3 -22.5
q10 -38 37.5 -58t63.5 -22q6 -2 10.5 -1t8.5 -1q32 -2 57 9t47 31q19 17 34 35.5l30 38.5q3 4 6 7.5t8 7.5l16.5 -5.5t14.5 -5.5l55.5 -21t55.5 -18q28 -9 19 -36q0 -6 -3 -9l-21.5 -43.5t-29.5 -40.5q-6 -5 -9.5 -12.5t-9.5 -12.5q-32 -36 -71.5 -60.5t-88.5 -32.5
q-7 -2 -14 -4.5t-17 -6.5h-71q-26 -1 -51 2.5t-51 8.5q-32 8 -60 24t-52 39l-31.5 39t-26.5 42l-12.5 22t-12.5 23q-14 24 -19.5 50.5t-5.5 55.5v53q0 6 -1 11.5t3 10.5q6 14 4.5 27.5t0.5 23.5l7 23.5t5 19.5l17.5 54t22.5 52q35 62 95 101q12 8 25 13l26 10q8 4 15 6t15 6
q20 8 40.5 11.5t43.5 0.5q9 -1 19 0t21 0q42 -8 83.5 -21.5t79.5 -34.5q2 -1 4 -2.5t5 -2.5q26 -25 49 -50.5t40 -58.5q2 -3 2.5 -5.5t2.5 -6.5z" />
    <glyph glyph-name="d" unicode="d" horiz-adv-x="730" 
d="M47 674q7 7 13 9.5t14 3.5q5 1 11 1.5t11 2.5q103 6 205 6q39 0 77.5 -6t76.5 -14q59 -12 99 -55q10 -9 19.5 -19t19.5 -19q11 -13 19 -27t14 -31q18 -43 26 -90q2 -8 3.5 -15t1.5 -14v-33.5t1 -31.5q1 -36 -5.5 -70.5t-17.5 -69.5q-2 -8 -5 -15.5t-7 -15.5
q-30 -78 -103 -118q-11 -5 -20 -10t-19 -10q-4 -2 -9 -5t-10 -3q-18 -2 -31 -11q-20 -2 -37.5 -1t-35.5 -7q-3 -1 -6 -0.5t-7 0.5h-144q-5 0 -9.5 1t-9.5 2q-10 4 -21 4t-23 -2q-6 -2 -12 -3.5t-13 -2.5q-14 0 -26.5 0.5t-25.5 0.5q-17 12 -14 28q2 21 -0.5 44t4.5 45
q2 2 2 5v6v88v23.5t-4 20.5q-2 5 -2 9v9v126q0 14 -0.5 39l-1 52.5t-0.5 54v44.5t1 36.5t1 37.5zM267 487q0 -4 -0.5 -7t-0.5 -5q1 -30 1 -59v-61l4 -82.5t3 -83.5q1 -4 1.5 -7t2.5 -9q29 2 58 6.5t57 15.5q19 8 26 24q6 9 10.5 19.5t5.5 20.5q3 26 5.5 51t1.5 52
q0 17 -2.5 33.5t-9.5 30.5q-9 18 -21 31.5t-26 25.5q-10 13 -27 13q-20 2 -43 1t-46 -10z" />
    <glyph glyph-name="e" unicode="e" horiz-adv-x="658" 
d="M580 174q3 -19 3.5 -58t-1.5 -92q-8 -14 -21.5 -18.5t-28.5 -5.5q-28 -5 -51 -5h-15.5t-15.5 2q-13 1 -23.5 2.5t-21.5 0.5q-36 -4 -71.5 -2t-71.5 0h-8.5t-8.5 2q-29 8 -59 6.5t-59 -1.5q-15 0 -28 0.5t-27 0.5q-15 0 -24 16q0 12 -1 25.5t-1 27.5q0 42 -0.5 83t-0.5 82
v280q0 17 -1 32t-1 29q-1 3 -1 7l2 45.5t1 43.5q8 13 25 18q5 2 10.5 2h9.5q47 2 94.5 5.5t97.5 3.5q35 -2 70.5 -1.5t71.5 4.5q20 2 41 2t41 -4q7 -2 14.5 -1.5t16.5 0.5q8 -2 14.5 -2t13.5 -2l4 -12t3 -11q6 -32 4.5 -63t-1.5 -62q0 -4 -1.5 -7t-2.5 -8q-17 -4 -34 -5
t-33 -3q-39 -1 -78.5 -1t-78.5 -2q-19 0 -37 -1.5t-35 -3.5q-7 -15 -8 -32.5t5 -45.5q7 -7 15 -7q32 -2 64.5 -3.5t64.5 0.5q22 1 42.5 0.5t41.5 -0.5q15 -11 19.5 -23.5t-0.5 -30.5q-3 -12 -3 -26v-46q-1 -4 -1.5 -7.5t-2.5 -8.5q-5 -2 -9.5 -3.5t-9.5 -3.5q-10 -1 -20 -1
t-20 -1q-2 0 -4.5 -1t-4.5 1q-17 5 -32 4t-32 -3q-5 0 -9 0.5t-8 0.5q-21 0 -42.5 -0.5t-44.5 -0.5q-1 0 -3 -1.5t-4 -3.5q0 -4 -1 -7.5t1 -7.5q2 -20 0 -41.5t3 -41.5q0 -1 1 -1t2 -1q7 0 12.5 -0.5t10.5 -2.5q5 0 10 -1.5t10 -1.5h22t22 2q26 4 52.5 3.5t54.5 -3.5
q23 -2 46.5 -3t46.5 4q4 2 8.5 -0.5t9.5 -2.5z" />
    <glyph glyph-name="f" unicode="f" horiz-adv-x="619" 
d="M45 674q12 13 26 17q14 2 30 4t32 2q46 2 93.5 2h93.5l27 2t26 1q33 2 66 2h66q11 0 21.5 -2t21.5 0q5 2 9 -0.5t9 -4.5q4 -12 7 -30.5t4 -40t0.5 -44t-3.5 -43.5q-5 -2 -8.5 -5t-8.5 -3l-18.5 -2t-17.5 -1h-102q-19 0 -38 -1l-38 -2q-14 0 -28.5 -1t-27.5 -1
q-4 0 -7.5 -0.5t-6.5 -0.5q-1 -2 -2.5 -3.5t-1.5 -3.5v-62q0 -5 3 -15q20 -2 40 -2.5t40 0.5q19 2 38.5 2t36.5 -5q21 -5 40.5 -2.5t38.5 -3.5q9 -22 11.5 -56.5t-2.5 -75.5q-5 -8 -13 -10.5t-17 -2.5q-16 0 -33 1t-34 -1q-6 0 -13.5 -1t-13.5 -3l-21 -2t-21 -1
q-17 -2 -33.5 -1t-33.5 1q-2 0 -5 -1t-7 -2q-1 -65 -1.5 -130.5t-0.5 -132.5q-5 -1 -10.5 -2.5t-9.5 -1.5q-22 0 -43 -2.5t-44 2.5q-5 1 -11 -0.5t-12 -1.5q-13 -2 -25 -2h-25q-9 0 -18.5 2.5t-17.5 7.5q-2 4 -3 8.5t-2 12.5v9v229.5t-2 230.5v41t-1 40q-2 23 -1 47t2 45z
" />
    <glyph glyph-name="g" unicode="g" horiz-adv-x="760" 
d="M683 24q-5 -2 -16 -2q-33 -2 -66.5 -2t-68.5 -1q-13 -2 -26.5 -2.5t-24.5 -4.5q-18 -6 -36.5 -6t-35.5 -1q-26 -1 -51 -0.5t-50 1.5h-17t-17 5q-1 1 -6 1l-27.5 2t-27.5 8q-28 17 -52 36.5t-44 46.5l-18.5 27.5l-18.5 27.5q-8 8 -11 21l-9.5 35t-6.5 37q0 6 -1 9
q-11 30 -10.5 60t5.5 59l4 25l4 24v12.5t2 11.5q6 27 17.5 52l22.5 51q5 10 11 16l22.5 22.5t25.5 19.5l30.5 21.5t33.5 21.5q16 8 32.5 12.5t33.5 7.5q15 3 29.5 3.5t29.5 1.5q8 2 17 2t16 1q21 5 40.5 4.5t40.5 -3.5q8 -1 17 -0.5t20 1.5l31.5 -8.5t35.5 -10.5
q13 -4 23.5 -12l21.5 -16q20 -15 40 -32t33 -42q5 -9 8.5 -18.5t8.5 -20.5q2 -8 1 -14.5t-9 -14.5q-17 -4 -35.5 -9t-37.5 -8q-13 -2 -25.5 -6.5l-24.5 -8.5q-5 -1 -8.5 -2t-5.5 -2q-10 1 -16 6t-11 11q-2 2 -4 6.5t-4 7.5q-10 19 -26 30t-35 18q-6 2 -12.5 3t-11.5 3
q-23 -2 -44.5 -7.5t-41.5 -15.5q-29 -12 -45 -35q-20 -22 -33 -48t-17 -56l-4 -19.5t-2 -19.5q-4 -32 2 -62.5t18 -59.5q10 -21 28 -33t39 -18q15 -4 29.5 -6t29.5 0h53t53 6q3 12 2.5 22.5t-2.5 22.5q-10 4 -19 2t-19 0q-8 1 -17.5 0t-17.5 1q-8 12 -8 23v21q-1 32 -1 52
t1 32.5t3 20t5 15.5q6 4 11 4q65 3 129 5.5t127 -0.5q7 -5 8 -12t1 -12q-2 -67 -2.5 -133t-1.5 -134q0 -14 -2.5 -29.5t-3.5 -31.5q-1 -4 -3.5 -8t-4.5 -11z" />
    <glyph glyph-name="h" unicode="h" horiz-adv-x="806" 
d="M472 660q14 16 31 18q35 5 69 6t69 -1q9 -1 19 -3t17 -3q17 -11 17 -31v-87v-97v-37q0 -9 -0.5 -19t-0.5 -20q1 -28 1 -70.5t-1 -87.5t-2.5 -85t-4.5 -63q-1 -11 -0.5 -19.5t0.5 -15.5t-3 -12.5t-10 -10.5q-12 -2 -23 -2t-21 -1q-11 0 -23 0.5t-23 -6.5q-2 -1 -7 -1h-94
q-5 0 -13 5q-3 14 -3.5 27t-0.5 26v164q0 7 -0.5 12.5t-0.5 12.5q-9 2 -17.5 3t-17.5 3q-8 2 -15.5 0.5t-14.5 -3.5q-29 -1 -57.5 -1h-57.5q-9 -2 -17.5 -1t-17.5 -3q-1 -2 -2.5 -6t-1.5 -8v-136q0 -18 1 -35.5t-1 -34.5q0 -10 -2.5 -18l-4.5 -15q-17 -5 -31.5 -4t-31.5 0
h-60h-56q-15 10 -15 20q0 20 0.5 39t0.5 39q0 17 1 34t1 33q0 13 -1.5 26.5t-1.5 27.5q0 108 -0.5 214t-0.5 214q0 7 0.5 12t0.5 10q6 8 13 11t17 3q18 0 34 0.5t33 -1.5q20 -2 39 -2.5t38 -0.5q4 0 8.5 -0.5t9.5 -1.5q2 -5 5 -8.5t4 -8.5q2 -16 3 -31t-3 -29q-2 -14 0 -27
q4 -29 3 -56.5t-1 -57.5q2 -3 5.5 -6.5t5.5 -7.5h70h71q18 0 35 -1t37 1q0 8 0.5 13.5t0.5 10.5q0 38 -0.5 76t-0.5 76v18.5t1 20.5z" />
    <glyph glyph-name="i" unicode="i" horiz-adv-x="354" 
d="M244 8q-47 -5 -90 -7.5t-85 -0.5q-8 1 -11 2.5t-17 9.5q0 14 -0.5 27t-0.5 25v104q0 4 0.5 8.5t-0.5 9.5q-3 17 -2 34l2 34q0 24 0.5 48t-1.5 49q-2 14 -1 28l2 28q0 9 -0.5 19t-0.5 21q0 15 -1 31t1 32q2 23 3 46t-3 47q-4 16 -1.5 32.5t3.5 33.5q1 13 10.5 20.5
t23.5 7.5h37q44 -3 82 -9h10q25 -1 34 -22q2 -6 3 -12.5t3 -14.5v-73q0 -16 -0.5 -32t3.5 -31q2 -4 2 -9.5v-11.5q0 -50 0.5 -98.5t0.5 -98.5v-103t-1 -102q0 -18 -2 -35t-3 -37z" />
    <glyph glyph-name="j" unicode="j" horiz-adv-x="610" 
d="M194 -5q-14 0 -29.5 3t-31 8.5t-29.5 12t-23 13.5q-21 13 -36 31t-20 44q-7 28 -9 61q-2 22 -2 43.5t-1 44.5q0 5 0.5 10t0.5 9q8 14 18.5 17.5t21.5 9.5q12 -3 26.5 -2.5t28.5 2.5q19 2 38 2.5t36 -3.5q8 -6 8 -13.5v-14.5q-1 -13 1.5 -26t6.5 -28q2 -8 7 -15.5
t16 -13.5h29q20 10 26 26.5t7 36.5q0 14 0.5 29.5t8.5 29.5v3q-5 30 0.5 60t5.5 60q-1 54 -0.5 105.5t0.5 105.5v31q15 8 26 17q43 1 86.5 1.5t86.5 -1.5q8 -6 11 -12.5t3 -14.5q5 -63 7.5 -129.5t-2.5 -129.5l-4 -84.5t-13 -84.5q-1 -8 -0.5 -16t-1.5 -14
q-8 -15 -10.5 -31.5t-5.5 -32.5q-4 -21 -13.5 -38t-21.5 -34q-3 -3 -5 -6.5t-4 -6.5q-5 -5 -7 -8.5t-7 -6.5q-23 -20 -50.5 -33t-59.5 -17l-59 -5z" />
    <glyph glyph-name="k" unicode="k" horiz-adv-x="865" 
d="M251 160q-1 -40 1 -77t-4 -75q-6 -2 -11 -3.5t-10 -1.5q-6 -2 -12 -2h-14q-19 -2 -37 -3t-37 -3q-19 0 -37 1t-37 8q-2 4 -5 9t-3 9q5 35 2 69.5t-3 69.5v107.5t-1 107.5v237v37q1 11 3 20t10 16q8 6 16.5 7t16.5 1l39 -4t37 -3q7 -1 14.5 -1h17.5q11 -1 21 -1.5t22 -2.5
q9 -35 9 -69v-61t1 -60v-23q21 16 37.5 34l33.5 35l33.5 32l33.5 33l34 34.5t37 33.5q22 -3 44 2t45 6q22 0 44 0.5t42 -1.5q24 -1 46 1t46 -2q4 -10 7 -13q-5 -6 -6 -6q-16 -9 -27.5 -22.5t-21.5 -27.5q-11 -17 -25 -31t-26 -28l-52 -58l-54 -58q-1 -2 -1 -3.5t-2 -4.5
q25 -51 53.5 -101.5t60.5 -101.5l61 -98t68 -94q-8 -14 -18 -18t-21 -4q-11 -2 -21 -2h-19h-64t-63 -1h-27q-26 9 -40 26.5t-24 37.5l-27 43.5l-27 42.5l-25 36.5l-24 35.5q-3 5 -7 10.5t-11 10.5q-26 -20 -47.5 -42.5z" />
    <glyph glyph-name="l" unicode="l" horiz-adv-x="639" 
d="M247 704q5 -4 8.5 -6t5.5 -4q9 -51 10.5 -99t1.5 -96v-122l4 -70l4 -69q0 -11 1 -20t2 -17q11 -5 19.5 -5.5t19.5 1.5q24 1 47 2.5t49 2.5q33 2 66.5 3t67.5 3h9q9 -2 16 -6t10 -13q2 -7 3 -13.5t1 -12.5q1 -62 0 -121q0 -4 -1 -8t-1 -9q-8 -7 -17 -9t-19 -3
q-38 -3 -76.5 -5.5t-77.5 -2.5q-29 0 -58 -1t-59 -1q-11 0 -22.5 0.5t-24.5 1.5q-8 0 -17.5 0.5t-19.5 -0.5q-26 -4 -52.5 -3t-53.5 1q-8 0 -16 1t-14 2q-12 10 -15 21t-3 22v60t-2 59q-1 74 -0.5 147.5t2.5 147.5q0 5 -1 10t1 10q5 42 4 81.5t2 79.5q2 8 1 15t-1 15
q3 20 22 23q9 0 18.5 1t18.5 1h31.5t32.5 5h9q9 -2 17 -3t16 -1q7 0 15 1t16 3z" />
    <glyph glyph-name="m" unicode="m" horiz-adv-x="959" 
d="M52 8q-9 10 -7 27q2 24 2 48t-3 50q-1 5 -0.5 9.5t0.5 9.5l2 30t1 29q1 66 1 128.5t2 127.5q0 10 1 20t1 20q1 11 1 23v24v52t3 53q4 2 8 5t9 5l12.5 4t14.5 5q13 -2 28 -1.5t29 -5.5q4 -2 8 -1t8 1h69.5t69.5 1q6 0 12.5 -0.5t16.5 -5.5q2 -4 3.5 -8.5l3.5 -10.5
q7 -38 15.5 -74.5t20.5 -73.5l29.5 -92.5l30.5 -89.5q1 -2 1.5 -3.5t1.5 -3.5q6 0 7 4t3 7q5 19 9 36.5t10 36.5q14 38 24.5 79t24.5 79q5 14 9 29t11 29q3 9 6.5 18l7.5 19q2 8 7 13t11 9q29 7 58 9t58 1t59 -0.5t59 -0.5q6 0 14 -3q1 -5 2.5 -9t2.5 -8q1 -11 2 -20t1 -17
q-2 -28 -2.5 -53t-1.5 -51v-70q1 -22 2.5 -43t1.5 -42q1 -67 1 -132v-132q0 -14 1 -28.5t1 -28.5q0 -6 -2 -13.5t-9 -13.5q-2 0 -5 -1t-6 -1h-141q-3 0 -10 4q-6 28 -5 56t-1 57q-2 27 -3.5 54.5t-1.5 55.5q-10 -5 -13.5 -12.5l-6.5 -13.5q-14 -38 -33.5 -74l-39.5 -72
q-8 -14 -17 -26.5t-18 -26.5q-9 -1 -28.5 -1.5t-41.5 -0.5h-43t-33 1q-21 26 -35 55l-29.5 63l-29.5 63q-15 28 -32 64q-3 -15 -3 -20q1 -22 -1.5 -43t0.5 -42q-5 -25 -4 -49.5t0 -50.5q0 -9 -2 -18t-3 -21q-7 -2 -13 -4t-11 -2h-163v0z" />
    <glyph glyph-name="n" unicode="n" horiz-adv-x="807" 
d="M51 1q-3 32 -5.5 63.5t-2.5 60.5v189v49q0 69 0.5 136.5t0.5 135.5q0 13 3.5 22.5t17.5 19.5q42 8 85 7t86 -6q12 -14 24 -26t23 -26l29 -37.5l30 -37.5l68.5 -82l66.5 -81q5 -2 7 -6t7 -8q2 12 2 23t-1 19q-3 15 -3 30t-1 29v85q-2 18 -3.5 38.5t-3.5 38.5v24q3 4 7 7.5
t6 8.5q46 2 91 2t92 -1l3 -7.5t1 -7.5q1 -8 1 -16.5v-17.5q0 -14 2.5 -28t9.5 -27q-3 -21 -4.5 -42t3.5 -42l2 -10t-1 -10q-2 -11 -2.5 -23t2.5 -23q-4 -14 -1.5 -30.5t-1.5 -31.5q-2 -8 0 -18t3 -19q2 -9 -2 -17.5t-1 -17.5q3 -7 2 -12q-3 -14 -3 -28t1 -28l2 -28.5
t-2 -28.5q-3 -15 -1.5 -32t3.5 -34q3 -24 2 -48t-8 -48q-12 -5 -22.5 -6.5t-21.5 -1.5q-26 -2 -53 -2h-53q-27 0 -44 20l-21 27.5t-20 26.5q-20 26 -37 52.5t-36 49.5q-20 22 -35 43.5l-30 44.5q-3 7 -10 13q-16 18 -30 36t-25 40q-1 2 -3.5 3t-4.5 3q-2 -4 -2 -6v-72t4 -73
q2 -13 2.5 -26.5t0.5 -27.5v-131q-5 -4 -8 -7.5t-5 -5.5q-5 -3 -11 -3q-23 -2 -45 -3.5t-45 -3.5q-9 0 -18.5 -1.5t-18.5 -2.5q-6 -1 -10 -1t-8.5 1t-10.5 4t-15 8z" />
    <glyph glyph-name="o" unicode="o" horiz-adv-x="771" 
d="M50 478l11 32l10 30q2 5 3.5 10t4.5 9q17 23 35.5 43.5t44.5 34.5q11 5 21 11.5t19 11.5q3 2 7 3t6 3q26 5 51.5 14t52.5 12l19.5 3.5t19.5 1.5q11 2 22 2.5t22 2.5q25 3 48.5 -0.5t47.5 -7.5q22 -5 41 -12.5t38 -18.5l40.5 -24t37.5 -24q24 -16 37.5 -37.5t21.5 -49.5
q8 -27 13 -55t9 -57q3 -26 3 -52t-2 -54q-2 -18 -4.5 -32t-5 -26.5t-6.5 -25.5l-9 -29q-1 -4 -2.5 -7.5l-3.5 -8.5t-5.5 -10t-5.5 -10q-8 -17 -21.5 -32l-25.5 -28q-15 -16 -32.5 -30.5t-38.5 -25.5t-44 -18t-46 -15q-40 -11 -80.5 -11.5t-82.5 -0.5q-28 6 -56.5 9t-55.5 15
q-47 24 -80 59t-52 85q-26 63 -28 134q0 5 -0.5 9.5t-2.5 9.5q-6 21 -5 40.5t-1 40.5q0 9 5 22q4 14 6.5 27.5t-1.5 26.5zM254 395q0 -5 0.5 -12t-1.5 -14q-6 -19 -7 -37t0 -38q2 -27 13 -49t26 -42q8 -11 21 -18t27 -12q8 -1 15 -2.5t15 -1.5q62 -9 114 29q17 12 28 27.5
t13 38.5q2 8 3.5 16t1.5 16q1 19 0.5 37.5t-0.5 36.5q0 35 -12 64t-34 55q-12 13 -25 20.5t-30 7.5q-13 0 -23 0.5t-21 -0.5q-41 -4 -77 -31q-11 -9 -18 -19.5t-12 -24.5q-5 -11 -8 -22t-9 -25z" />
    <glyph glyph-name="p" unicode="p" horiz-adv-x="687" 
d="M262 240q-2 -14 -3.5 -23.5t0.5 -19.5l2 -80.5t1 -82.5q0 -27 -21 -31q-9 -3 -17 -3h-145q-11 0 -19 3.5t-16 15.5q0 5 -1 12.5t-1 14.5q2 56 3.5 111t1.5 110v149q0 15 1 31t1 31t-0.5 29t0.5 27q2 17 0.5 32t-2.5 32q0 15 2 28.5t2 28.5q0 6 3 12t5 11q11 6 21 9t23 -1
q3 -1 6.5 -1h5.5q17 5 33.5 1.5t33.5 -1.5h9q27 -11 53.5 -9t52.5 2q38 -1 75.5 -0.5t75.5 -0.5q24 0 47 -7t44 -15q23 -11 35.5 -29t23.5 -38l7.5 -13t6.5 -13q2 -8 4.5 -14.5t4.5 -14.5q1 -16 1 -31v-30q0 -6 -0.5 -11t-0.5 -11q1 -32 -10.5 -59.5t-25.5 -53.5l-21 -18
t-20 -17q-65 -34 -135.5 -48t-146.5 -14zM387 463q-2 8 -4 17.5l-4 18.5q-11 10 -24.5 13t-25.5 3q-14 0 -30.5 1t-31.5 -7v-33.5t-2 -33.5q0 -3 1 -6.5t2 -8.5q18 -7 36.5 -3.5t35.5 8.5q13 2 25 8t22 23z" />
    <glyph glyph-name="q" unicode="q" horiz-adv-x="800" 
d="M261 697q26 0 53.5 0.5t54.5 4.5q36 5 71.5 3t70.5 -13q5 -3 10 -4t9 -3q21 -11 42.5 -21t41.5 -21l24.5 -16.5t23.5 -18.5q17 -11 26.5 -28.5t16.5 -34.5q6 -14 13 -27.5t9 -28.5q5 -15 9.5 -30t2.5 -33v-26q0 -14 2 -27.5t0 -25.5q-8 -28 -13 -57t-15 -56l-11.5 -35
t-14.5 -34q-5 -6 -7.5 -12.5t1.5 -16.5q7 -9 16.5 -15t20.5 -11q28 -13 47 -42q-4 -29 -18 -54l-28 -51q-9 -3 -13 -6q-4 -1 -7.5 -1.5t-8.5 -2.5q-14 6 -27 12.5t-26 15.5q-6 3 -11 6t-8 8q-12 12 -26.5 20t-26.5 19q-19 2 -29 -5q-17 -11 -35 -14l-36 -6q-3 0 -6 1t-6 1
q-9 -7 -16 -10q-2 0 -4 -0.5t-7 -0.5h-24.5t-25.5 1q-24 2 -48.5 3.5t-50.5 3.5q-36 3 -67 19t-59 35q-17 14 -31.5 28.5t-23.5 33.5q-6 11 -12.5 21.5t-10.5 20.5q-8 17 -14 32.5t-7 34.5q0 17 -4.5 32.5t-8.5 32.5q-1 5 -2.5 8.5t-0.5 7.5q5 21 1.5 40t1.5 40q6 23 8 47.5
t6 47.5q5 23 12 44t19 40q2 2 3.5 5.5t3.5 5.5q11 8 18 18.5t13 20.5q2 5 6 8.5t8 5.5l36 21.5t37 20.5q2 2 5 3t6 3q9 2 18.5 5zM331 209q0 12 2 16q13 40 44 73q19 18 41 6q4 0 6.5 -0.5t7.5 -2.5q13 -8 28 -14.5t26 -17.5q5 -4 11 -6.5t12 -5.5l4 2q1 2 2.5 4t2.5 4
q5 28 5.5 55t-1.5 52q-2 32 -13 60.5t-32 54.5q-17 23 -45 29q-24 6 -46.5 3t-43.5 -9q-29 -8 -49 -27.5t-32 -48.5q-8 -21 -14 -42.5t-4 -43.5q2 -14 -2 -30q-2 -34 9.5 -60t30.5 -51q30 -34 78 -36l-14.5 19.5t-13.5 16.5z" />
    <glyph glyph-name="r" unicode="r" horiz-adv-x="797" 
d="M335 275q-22 2 -41.5 -1t-38.5 -8q-10 -12 -5 -27q2 -11 1.5 -19.5t-3.5 -17.5q-1 -5 -0.5 -11t0.5 -14v-97q0 -16 1 -30.5t1 -32.5q-2 -3 -5.5 -7t-5.5 -9q-34 -5 -68 -6t-67 2h-22q-6 0 -9.5 0.5t-7 2t-8 4t-12.5 7.5q-1 23 -1 45v46q0 48 -0.5 94.5t-0.5 94.5v104v200
v54q0 8 1 16.5t7 16.5l5 2.5t6 1.5q15 1 29.5 1.5t31.5 0.5h177q9 0 18 -0.5t19 -1.5q6 0 12 -0.5t11 0.5q32 5 63.5 2.5t62.5 -5.5q11 -1 20.5 -4t18.5 -7q6 -2 14 -5.5t14 -6.5q56 -28 75 -86q12 -31 13.5 -62.5t-2.5 -63.5q-8 -48 -26 -88q-9 -20 -21.5 -35.5
t-32.5 -23.5q-6 -6 -10 -8q8 -14 13.5 -25.5t13.5 -21.5q15 -20 25 -41.5t22 -43.5l28 -54l29 -56q1 -8 4.5 -19.5t-0.5 -23.5q-16 -7 -34 -2q-12 5 -22 5.5t-21 0.5q-28 0 -56 0.5t-54 0.5q-8 0 -14.5 1.5t-11.5 7.5q-14 30 -30 60.5t-34 59.5q-5 6 -7 13t-6 14q-2 4 -4 9
t-6 9q-7 8 -11 16.5l-8 17.5q-6 14 -12.5 27.5t-17.5 26.5zM255 421q12 -3 17 -3q20 0 38 0.5t36 0.5q8 2 15.5 2t14.5 1q29 4 40 33q13 37 -22 67q-43 6 -79.5 5.5t-59.5 -8.5v-98z" />
    <glyph glyph-name="s" unicode="s" horiz-adv-x="700" 
d="M216 234l8 -8t8 -7q2 -14 5 -30t11 -28q11 -11 22 -13t22 -2q13 0 25.5 1.5t22.5 9.5q17 11 20 35q-2 17 -11.5 28.5t-23.5 21.5q-14 6 -26.5 13t-26.5 12q-24 8 -45.5 19.5l-43.5 22.5l-33.5 16.5l-33.5 17.5q-35 37 -55 81t-15 98q8 22 18 43t18 43q22 20 44 38t49 32
q32 17 65 24t68 9q24 0 49.5 -0.5t50.5 -3.5q32 -5 61.5 -17t55.5 -29q21 -14 34.5 -34t21.5 -45q8 -22 12 -44q2 -9 3 -18t-5 -19q-6 -4 -13.5 -7t-15.5 -3q-20 0 -39 -1t-38 4q-13 -3 -26.5 -3h-27.5q-9 0 -17.5 2t-17.5 5q-8 15 -13 32.5t-20 31.5l-14 6t-14 7
q-8 -1 -17 -2.5t-17 -2.5q-14 -12 -18.5 -28t-2.5 -31q6 -22 19.5 -32t30.5 -15q8 -2 15 -3.5t15 -2.5q38 -8 74 -20.5t71 -27.5q12 -4 22.5 -10.5l21.5 -13.5q24 -14 36 -35t16 -47q3 -20 4.5 -38.5t-1.5 -38.5q-2 -19 -3 -37.5t-5 -35.5q-5 -16 -11.5 -32t-18.5 -28
l-19 -21.5l-18 -21.5q-23 -22 -50.5 -33.5t-57.5 -16.5q-22 -5 -44.5 -6.5t-44.5 -1.5q-61 3 -117 0q-66 -1 -116 41q-11 8 -21 17.5l-18 16.5q-7 13 -12 23.5t-11 21.5q4 27 0 54.5t2 53.5q10 10 20 11.5t20 1.5h137v0z" />
    <glyph glyph-name="t" unicode="t" horiz-adv-x="708" 
d="M261 6q-2 4 -4.5 7l-7.5 9v47.5t-1 47.5q0 16 -0.5 29t-5.5 27q-3 14 -2 27.5t1 26.5v128q0 5 1.5 11t1.5 11q1 13 2 24.5t-1 22.5q-3 18 -4 35t1 35q0 5 -0.5 9t-0.5 9q-4 2 -8 3.5t-8 1.5l-21 2t-21 1h-27.5t-26.5 -1q-25 -3 -48.5 -0.5t-47.5 6.5q-4 18 -5 34.5
t0 33.5q3 31 -1 60q0 8 1 14.5t9 14.5q8 3 18 6t21 3q30 1 59.5 2.5t58.5 3.5q29 0 60 1t60 -1q57 -7 112.5 -6.5t112.5 -2.5q26 -1 51.5 -1.5t51.5 -1.5q5 0 9.5 -1t9.5 -2q2 -5 5 -9.5t3 -9.5q2 -32 6 -64t2 -65q0 -3 -3 -6q-17 -8 -35.5 -10t-36.5 1q-29 5 -57.5 3
t-56.5 -2q-11 0 -24 -5q-1 -11 -2 -20.5t1 -20.5q0 -16 -1 -34t-1 -35q0 -18 1 -34t-2 -33q-2 -14 -3.5 -26.5t0.5 -26.5q2 -58 0 -116t-2 -116v-15q-2 -11 -5 -18.5t-14 -13.5h-175z" />
    <glyph glyph-name="u" unicode="u" horiz-adv-x="810" 
d="M296 245q35 -15 64.5 -16t68.5 13q19 14 29.5 35t14.5 45q5 27 6.5 54t3.5 53q2 31 1 62t1 63q1 30 0.5 59.5t-0.5 61.5q5 4 8.5 8t6.5 8l20 2t19 2q5 2 13 2q29 -5 57 -4t56 -1q2 -1 5 -1.5t5 -2.5q19 -11 19 -32v-119.5t-1 -120.5q0 -17 -3 -35.5t-5 -36.5
q-2 -20 -6 -38.5t-6 -38.5q-1 -2 -1 -5.5t-2 -5.5q-6 -19 -12 -36l-12 -34q-4 -11 -9 -20t-13 -19q-6 -7 -10 -16.5t-9 -17.5l-24.5 -22.5l-24.5 -23.5q-22 -19 -47.5 -32.5t-56.5 -17.5q-7 -1 -14 -3.5t-18 -5.5q-2 0 -5.5 -1t-7.5 1q-14 5 -29 2t-30 1q-12 -5 -25 -3
t-24 5q-29 7 -56.5 15.5t-54.5 22.5l-23 11t-20 11q-13 14 -25.5 26l-27.5 26q-1 1 -3.5 7t-5.5 12q-10 14 -16 30.5t-11 33.5q-4 10 -6 22t-7 26q1 2 2 9.5t2 18.5q-9 25 -9 51t-2 53v74q0 8 2 12q6 20 4.5 39t-3.5 39q0 23 -0.5 46t-0.5 46q0 13 3 21t11 22l21.5 7.5
t20.5 5.5q19 10 34 0q19 -8 46 -8q14 2 30.5 -1.5t33.5 -7.5q2 -6 5 -11.5t5 -8.5q1 -52 1.5 -100t2.5 -96q2 -41 5.5 -81.5t14.5 -81.5q4 -14 8 -30t16 -29z" />
    <glyph glyph-name="v" unicode="v" horiz-adv-x="858" 
d="M501 6q-26 -2 -50 -2.5t-48 -2.5l-14.5 -2l-15.5 -2l-75 4q-22 6 -28 23l-16 43.5l-15 41.5q-1 4 -5 12q-17 36 -29.5 73t-28.5 73l-23.5 60l-22.5 59q-14 40 -29 78.5t-32 77.5q-8 22 -17 43.5t-17 43.5q-2 8 -6 15.5t-7 15.5q3 6 6 9q10 23 31 19q14 -1 27.5 -1.5
t26.5 -0.5l46 -2t49 -2q14 -2 20.5 -5t19.5 -14q29 -115 62 -227t80 -222q4 4 5.5 5t3.5 3l16.5 53.5l16.5 52.5q3 11 6.5 20.5t8.5 20.5q17 48 31.5 98l28.5 100q12 46 30 93q0 5 2 7.5t4 6.5q13 9 28 9h72.5t72.5 -1q14 0 27 -8q5 -6 4.5 -11.5t-3.5 -10.5l-15.5 -34
l-14.5 -34l-30 -80.5l-29 -79.5l-14.5 -38t-13.5 -37l-33.5 -102l-33.5 -101q-10 -29 -18 -57t-19 -55q-5 -16 -22 -28z" />
    <glyph glyph-name="w" unicode="w" horiz-adv-x="1095" 
d="M859 0l-8.5 -3.5t-8.5 -1.5h-67q-2 0 -5.5 1t-6.5 -1q-34 -2 -67.5 2t-66.5 4q-1 0 -2 1t-2 1q-8 4 -11 11.5l-6 15.5q-3 17 -6.5 34t-9.5 34q-3 17 -7.5 33t-9.5 32l-30 97.5l-29 97.5q-2 4 -5 13q-14 -10 -16.5 -23.5t-7.5 -25.5q-10 -25 -18 -53q-5 -12 -9 -24t-8 -26
q-5 -14 -9.5 -28t-10.5 -28q-4 -12 -7 -24.5t-7 -25.5q-5 -13 -9.5 -27t-9.5 -26q-5 -13 -7 -27t-13 -25q-20 -2 -38.5 -4.5t-38.5 1.5q-12 3 -25.5 1.5t-27.5 -2.5q-11 0 -21 -0.5t-18 0.5q-6 0 -10.5 2.5t-9.5 4.5l-17 47t-13 49q-10 38 -18.5 77t-19.5 78l-28 109.5
l-28 110.5q-15 71 -27 139q-2 15 -1 30.5t15 28.5q5 0 10.5 -0.5t10.5 -0.5t10 1.5t10 2.5h15q19 -6 39 -4.5t39 1.5q11 0 21.5 -1.5t20.5 -9.5q7 -23 12 -47.5t11 -47.5q7 -26 12.5 -51t12.5 -51q8 -23 12 -47.5t11 -48.5q9 2 13 8t6 13q6 21 15 43t14 43q4 20 11 38t13 36
q8 26 16.5 50.5t15.5 50.5q3 7 6.5 12.5t10.5 8.5q26 3 50 1.5t50 2.5q8 2 17.5 -0.5t19.5 -3.5q7 1 13 2l12 2q11 -3 20.5 -8.5t14.5 -14.5q4 -8 6.5 -14.5t4.5 -14.5q18 -52 32 -105l27 -107q4 -16 10 -29q0 -2 2.5 -3.5t4.5 -4.5l28.5 83.5t21.5 85.5q2 19 6.5 39l8.5 39
q2 15 7.5 28t21.5 21q41 5 84 5t86 2q8 -5 9.5 -11.5t1.5 -13.5q-2 -34 -7.5 -67.5t-12.5 -67.5l-13.5 -64.5l-12.5 -62.5q-5 -26 -8 -50.5t-8 -49.5l-21 -102t-19 -102q-1 -4 -1 -9t-1 -12q-3 -34 -17 -73z" />
    <glyph glyph-name="x" unicode="x" horiz-adv-x="875" 
d="M569 349q2 -4 2 -6t2 -5l18.5 -33.5t18.5 -34.5l22 -35t22 -34l31 -45.5t32 -42.5q17 -18 28 -39.5t24 -41.5q1 -2 1 -5v-5q-1 -8 -5.5 -11t-9.5 -5q-4 -1 -7.5 -1h-6.5h-90q-11 0 -20 -0.5t-19 -1.5q-17 -2 -31.5 -2.5t-29.5 0.5q-17 16 -31 33.5l-28 34.5l-20.5 27.5
l-20.5 26.5q-6 8 -11 15.5l-10 15.5q-8 21 -32 40l-59 -93t-61 -92q-8 -4 -16 -5t-19 -1q-42 0 -83.5 -1t-83.5 1q-8 0 -15 1t-14 1q-15 11 -6 25l28 37t30 37l24.5 30.5l26.5 31.5q8 16 19 28.5t21 26.5l19.5 25.5t14.5 25.5q11 22 25.5 41.5t22.5 43.5q1 1 0.5 2.5
t0.5 5.5l-4.5 11.5t-6.5 13.5q-22 26 -39 54.5t-40 54.5q-7 8 -12.5 17l-10.5 18q-22 32 -42.5 65l-43.5 67q4 6 8 17q22 2 41.5 1l39.5 -2q14 -2 28 -2h28q11 0 23 1l23 2q20 0 32 -14l35.5 -54.5t31.5 -55.5q8 -19 19 -33l22 -28h7q0 -1 2 3l48 73l47 75q10 15 15 25
q11 8 21 8h24h12t11 -2q11 -2 22 -2.5t22 -0.5q21 0 42.5 0.5t43.5 0.5q8 0 19 -3q0 -5 0.5 -8.5t-0.5 -6.5q-2 -5 -5 -11.5l-6 -13.5q-20 -24 -31 -54q-12 -33 -30 -59q-15 -20 -26 -41.5l-22 -42.5q-14 -23 -26 -45t-26 -44z" />
    <glyph glyph-name="y" unicode="y" horiz-adv-x="837" 
d="M482 13q0 -1 -2 -2q0 -1 -3 -5q-23 -2 -45 -1.5t-44 -3.5q-22 -3 -45 -3.5t-46 -2.5q-13 7 -17 22q-6 24 -4 47q5 26 4.5 52t1.5 50q1 14 2 25.5t1 22.5q0 14 -1 29l-2 29q-4 6 -8.5 13.5t-8.5 13.5q-14 20 -27.5 41.5t-28.5 41.5q-4 6 -7.5 12t-8.5 11q-14 15 -27.5 31
t-26.5 33q-34 45 -64.5 93t-56.5 98q1 5 2 7.5t2 7.5q5 2 10 4.5t11 2.5q20 -2 40 -3t40 3q6 2 12 -1t13 1q23 -2 45.5 1t45.5 -1q12 -8 19.5 -19l15.5 -22l84 -135q5 -6 9 -13.5t11 -15.5q22 28 41 55.5l38 53.5l33.5 51t38.5 45q9 5 17.5 5.5t19.5 0.5q23 0 48 1.5
t48 -3.5q10 -2 20 -1t21 1h11t11 -1q14 -2 18 -10.5t-2 -18.5q-5 -9 -12 -16.5t-12 -15.5l-39 -58l-39 -57l-17.5 -29.5l-17.5 -28.5q-4 -9 -8 -16.5t-12 -15.5q-2 -2 -4.5 -5.5t-4.5 -7.5q-9 -24 -23.5 -43.5t-28.5 -42.5q-3 -3 -5 -11q-5 -10 -9.5 -18t-12.5 -16
q-5 -6 -7.5 -13t-6.5 -12v-237z" />
    <glyph glyph-name="z" unicode="z" horiz-adv-x="688" 
d="M401 537q-22 2 -42 1.5t-40 -1.5h-81h-76h-85l-5.5 5.5t-4.5 5.5q-5 45 -3.5 76t8.5 55q4 1 8 2.5t9 1.5h89q14 2 26.5 2.5t26.5 1.5q7 1 12.5 1h12.5q44 2 87.5 3t88.5 3q31 2 62.5 1.5t61.5 1.5q17 0 32 -2t32 -7q5 -1 9 -4t10 -6q2 -29 4.5 -56.5t4.5 -54.5
q-5 -14 -12 -23.5l-14 -18.5l-50.5 -53.5l-50.5 -55.5q-18 -20 -37.5 -39t-36.5 -42q-6 -10 -13 -17.5l-14 -15.5l-54.5 -60l-54.5 -60q-2 -1 -3 -8q19 -2 39 -1.5t39 0.5h82q19 0 39.5 0.5t40.5 -0.5l40 -2t37 -3q8 -4 11 -8.5t3 -10.5q2 -29 3.5 -57.5t-0.5 -56.5
q-1 -4 -2 -8.5t-3 -9.5q-5 -1 -9 -2.5t-8 -1.5q-11 -1 -21 -1h-21q-6 -1 -11 -0.5t-11 -0.5q-16 -5 -30.5 -5.5t-28.5 -0.5q-13 0 -24.5 0.5t-22.5 -0.5q-31 -1 -61.5 1.5t-60.5 -2.5q-3 -1 -6 -0.5t-8 0.5q-16 1 -33.5 1t-33.5 -2q-17 -2 -32 -2h-30h-42.5t-41.5 -1
q-25 0 -43 11q-2 2 -3.5 4.5t-1.5 4.5q-2 21 -4 39.5t6 38.5q2 5 2.5 12t0.5 13v67q4 4 7.5 9t8.5 10l24 20.5l24 20.5l51.5 43.5l49.5 44.5q24 20 44.5 42t38.5 45q11 13 22 24l22 23l21.5 25.5l21.5 24.5q3 3 4.5 6.5z" />
    <glyph glyph-name="braceleft" unicode="{" horiz-adv-x="418" 
d="M292 75q14 -10 28 -12.5t28 -5.5q18 -13 17 -35v-11q-6 -35 -9 -70q-1 -9 -4 -18t-11 -16q-3 -2 -7.5 -3.5t-9.5 -1.5h-49t-49 2q-6 0 -12.5 2l-13.5 4q-11 6 -21 13t-20 13q-14 8 -19.5 20t-8.5 26q-2 10 -3.5 20t-8.5 18q1 50 -5.5 97t-14.5 94q-1 8 -3.5 16l-4.5 15
q-7 6 -14 8.5t-14 3.5q-14 3 -26 8q-8 11 -14 24q0 20 -1 37.5t1 36.5q0 13 1.5 27t2.5 26q1 11 7 19t14 13t14 8t13 8q13 4 20 22q8 16 10.5 30.5t3.5 29.5q2 29 3.5 58.5t4.5 58.5q2 13 5 26l6 26q5 20 20 34t32 24q11 6 23.5 10t24.5 6q15 1 31.5 4t30.5 5q13 0 25.5 -3
t24.5 -5q9 -2 18 -6q7 -4 9.5 -9.5t4.5 -12.5q0 -26 1 -52.5t-4 -51.5q0 -2 -1 -4.5t-2 -4.5q-8 -8 -15 -11t-15 -5q-35 -14 -41 -54q-2 -23 -6 -45.5t-12 -44.5q-1 -6 -2.5 -10.5t-2.5 -9.5q-8 -28 -22 -51.5t-37 -43.5q-1 -7 2.5 -10.5t7.5 -6.5q34 -38 47.5 -80t13.5 -92
v-37q0 -18 1.5 -34t6.5 -36z" />
    <glyph glyph-name="bar" unicode="|" horiz-adv-x="273" 
d="M129 -96q-3 1 -5 2.5t-6 1.5q-8 2 -14 1t-12 1q-19 2 -30.5 14t-11.5 29q0 32 1 64.5t1 64.5l2 68.5t1 70.5q1 46 0.5 91.5t0.5 90.5q0 14 1.5 28t2.5 28q1 8 1.5 16.5t2.5 16.5l2 32.5t1 32.5q1 2 1 6v7l-2 41t-1 42q0 5 -0.5 10t0.5 9q2 11 3 22t1 22q1 11 0.5 22.5
t-0.5 25.5l7 16t9 19q31 10 61.5 12t58.5 -13q8 -9 10 -18.5t2 -17.5v-75q0 -21 -0.5 -43t-0.5 -42q1 -20 1 -36.5t4 -35.5q1 -5 0.5 -10.5t-0.5 -10.5q-2 -15 -2.5 -29.5t2.5 -28.5q1 -3 2 -6.5t-1 -6.5q-7 -24 -3 -48t0 -47q-5 -29 -3.5 -57.5t0.5 -57.5q0 -23 -2 -47.5
t-2 -47.5q-3 -96 -3 -186q0 -29 -27 -43h-53v0z" />
    <glyph glyph-name="braceright" unicode="}" horiz-adv-x="417" 
d="M371 242h-6.5t-8.5 -2q-11 -5 -21 -12t-15 -20q-6 -16 -10 -32t-4 -32q0 -14 -0.5 -25t-2.5 -22q-8 -23 -3 -49q3 -26 -1.5 -49t-11.5 -47q-7 -20 -20.5 -33t-30.5 -20q-13 -5 -26.5 -8t-25.5 -6q-14 -2 -28 -3l-28 -2q-15 -3 -32 0q-36 0 -36 33q0 30 -0.5 61t7.5 60
q5 7 13 9t16 3q23 4 32.5 15.5t8.5 35.5q0 10 1.5 20.5t1.5 21.5t-1 21.5t1 21.5q1 12 3.5 22t2.5 21q0 13 3.5 24t8.5 21l15 29t18 26q2 3 4.5 8t4.5 10v3q-2 5 -3 5q-17 17 -27.5 37.5t-17.5 43.5l-13.5 50.5t-14.5 48.5q-5 20 -13 35.5t-21 33.5q-7 3 -14.5 7l-15.5 8
q-15 13 -15 32q0 23 1 45.5t1 45.5q0 5 2 9l3 6q8 28 33 28q34 2 67 0t65 -13q32 -13 52 -34.5t26 -55.5q4 -24 7 -48.5l6 -47.5l8 -47.5t9 -47.5q5 -18 14 -31.5t26 -23.5q23 -12 23 -34q2 -26 3.5 -51.5t2.5 -50.5q0 -6 -0.5 -13t-2.5 -14q-1 -15 -20 -27z" />
    <glyph glyph-name="asciitilde" unicode="~" horiz-adv-x="653" 
d="M48 239v34t1 34q2 27 3.5 53t3.5 54q0 6 2 12l4 12q9 12 21 18.5t24 10.5q16 5 31 7.5t30 0.5q14 -2 24.5 2t19.5 6q16 -1 30.5 -1t27.5 -1q29 -1 56 -6t54 -12q20 -4 39 -8.5l39 -9.5q26 -5 49.5 0.5t46.5 17.5q5 2 7.5 4.5t7.5 4.5q17 8 32 0q10 -17 10 -34v-131
q-14 -12 -26.5 -24t-26.5 -24q-26 -8 -53.5 -18t-56.5 -10t-57.5 3t-57.5 12q-36 11 -72.5 14t-74.5 1q-25 -2 -48.5 -8t-46.5 -19q-5 -1 -7 -3t-5 -3q-9 -5 -14.5 -2.5t-16.5 13.5z" />
    <glyph glyph-name="percent" unicode="%" horiz-adv-x="911" 
d="M881 123q-14 -37 -24 -57t-22 -31t-27.5 -19l-40.5 -21q-12 -2 -22 -4l-20 -4q-25 -2 -49 -3t-50 6q-12 4 -23.5 9t-21.5 13q-4 4 -9 6.5t-10 5.5q-16 20 -23 43.5t-8 47.5q0 20 -0.5 40t1.5 40q3 20 7.5 39t19.5 35q7 10 14.5 18.5t18.5 13.5q14 5 26 11t26 10
q35 9 68.5 6.5t67.5 -10.5q10 -2 19 -8l18 -12q14 -14 26.5 -28t20.5 -32q3 -8 7.5 -16t9.5 -16v-83zM674 82q4 -2 7.5 -4t8.5 -3q4 -2 8 -2t8 -1q12 6 17.5 15t9.5 17q2 7 1.5 14.5t1.5 15.5q8 15 4.5 29t-5.5 29q-4 10 -9 15t-13 10l-14.5 3.5t-11.5 3.5q-14 -4 -18.5 -13
t-7.5 -19q-9 -29 -9 -56q0 -30 22 -54zM381 447q-2 -4 -5 -8t-4 -9q-7 -21 -23 -36.5t-33 -28.5q-12 -10 -27 -12.5t-29 -3.5q-39 -3 -78 0q-19 1 -36 7t-34 14q-2 0 -5 3q-15 20 -32 36.5t-27 40.5l-10 25t-3 29v29q0 93 82 136q10 7 20.5 12l21.5 10q15 8 32 10t33 -2
l25.5 -4l24.5 -4q42 -10 66.5 -36.5t35.5 -68.5q8 -21 5 -46q-2 -11 -1 -22.5t3 -23.5q0 -11 -1 -22t-1 -25zM221 451q22 3 29.5 14.5t8.5 25.5q1 9 1.5 17.5t2.5 16.5q2 14 -1 26.5t-7 26.5q-6 5 -12.5 9t-11.5 8q-6 0 -10.5 0.5t-9.5 -0.5q-31 -2 -35 -30q-2 -17 -3 -35
t-3 -36q-2 -10 1 -18t8 -14q11 -7 22.5 -7.5t19.5 -3.5zM576 700l14.5 5.5t11.5 1.5q23 -5 49.5 -4t46.5 -6q5 -5 8.5 -10.5t7.5 -9.5q-2 -14 -8.5 -27l-12.5 -24q-8 -12 -15.5 -24.5t-14.5 -26.5q-17 -37 -38 -72.5l-42 -70.5l-23 -40t-22 -40q-14 -28 -29 -53.5t-26 -52.5
q-12 -26 -26 -51.5l-28 -50.5l-26.5 -51.5t-27.5 -49.5q-5 -10 -9.5 -22t-14.5 -21q-3 -4 -6.5 -6.5t-9.5 -7.5q-11 -1 -21.5 -1.5t-23.5 -2.5q-5 0 -9 0.5t-8 2.5q-8 6 -18 7t-21 3q-7 6 -13 12.5t-11 12.5q-2 16 2 28.5t12 24.5l34.5 68l36.5 69l41.5 76.5l44.5 76.5
l51 92.5t53 93.5l36 65l36 65q4 5 9 10t10 11z" />
    <glyph glyph-name="sterling" unicode="&#xa3;" horiz-adv-x="647" 
d="M98 588q2 4 4.5 6.5t4.5 7.5q11 21 28.5 37t35.5 30q5 2 9 5.5t8 5.5q27 13 56.5 19.5t59.5 14.5q23 5 46 4.5t46 -3.5l6 -2t5 -1q25 -1 48 -11.5t44 -25.5q19 -14 34 -31.5t29 -36.5q16 -33 16 -73q0 -3 -2 -6.5t-4 -8.5q-40 -10 -79.5 -10t-77.5 1q-10 6 -15.5 13.5
t-10.5 16.5q-11 20 -27.5 24t-36.5 -7q-25 -19 -31 -51q-2 -24 5 -45l15 -43q7 -2 12.5 -2h12.5q20 -2 38 -2.5t38 -2.5q31 -4 35 -35q0 -14 -0.5 -27t-5.5 -27q-3 -6 -3.5 -13t-1.5 -13q-9 -9 -20.5 -12.5t-25.5 -3.5h-53q-11 -14 -16 -29t-10 -32q9 -2 17 -3.5t18 -2.5
q20 -5 40.5 -9t40.5 -10q15 -3 29.5 -5t28.5 0h47q10 -6 16 -13.5t11 -15.5l16 -32.5l16 -33.5q4 -7 6 -18q0 -11 -5.5 -17t-13.5 -10q-19 -8 -40 -18.5t-44 -10.5h-4t-3 -1q-12 -8 -26 -7.5t-29 0.5q-79 -2 -150 10q-50 12 -99 0q-16 -2 -30.5 -4.5t-29.5 -8.5
q-3 -2 -7.5 -1.5t-6.5 0.5q-10 5 -13.5 14.5t-5.5 17.5q-7 10 -10.5 21t-9.5 22q-13 31 -19 69q8 7 15 14.5l15 15.5q16 15 19 34q1 2 2 5.5t1 6.5q2 11 3 22t3 22l-21 4t-19 6q-6 2 -12 6l-12 8q-1 24 -4.5 48t-1.5 50q0 5 1 10.5t8 11.5q8 0 18 1.5t21 3.5q5 11 2 20
t-6 17q-3 13 -3.5 25.5t1.5 26.5v13q0 17 2.5 32.5t11.5 32.5z" />
    <glyph glyph-name="dollar" unicode="$" horiz-adv-x="664" 
d="M268 290q-6 7 -14 10t-18 6q-11 5 -22.5 9t-25.5 8q-18 8 -29 18q-13 7 -25.5 14.5t-28.5 15.5q-8 13 -20 27t-20 31q-6 12 -9.5 21.5t-3.5 21.5q-8 20 -7 40.5l2 41.5q0 14 7 24q8 20 17 37t23 34q2 2 3 4.5t3 4.5q20 16 42.5 29.5t48.5 20.5l40 10.5l41 11.5
q0 14 0.5 26.5t0.5 24.5q14 14 27.5 13t26.5 1q14 1 26 -14q5 -12 3 -24.5t2 -26.5q10 -4 20 -4.5t21 -2.5q34 -5 63.5 -19.5t57.5 -34.5q10 -8 16 -17q7 -8 12.5 -16t12.5 -15q8 -26 14.5 -49.5t-1.5 -51.5q-8 -7 -17 -6.5t-20 0.5q-20 1 -41 0.5t-40 -2.5
q-16 -1 -29.5 -0.5t-27.5 3.5q-15 10 -16 24.5t-3 28.5q-5 4 -9 6q-2 -1 -3.5 -2t-3.5 -2q-8 -9 -9 -24q0 -14 -1 -26.5l-2 -25.5q6 -12 15.5 -14.5t17.5 -5.5q26 -5 49.5 -13l46.5 -16q20 -7 35 -15.5t30 -19.5q36 -23 50 -66q7 -23 11 -45.5t3 -45.5q0 -24 -2.5 -46
t-10.5 -44q-17 -49 -49.5 -81t-82.5 -44l-51.5 -11.5l-50.5 -10.5q-11 -4 -19 -5q-1 -12 -2 -22t-1 -21q-14 -15 -28 -17t-30 -1q-8 6 -10.5 13.5t-3.5 15t-1.5 15.5t-2.5 15q-11 4 -23 4.5t-23 2.5q-29 1 -56 9t-53 20q-59 29 -71 99q-1 6 -3 11t-5 10q-5 16 -5 30.5
t2 29.5q0 6 3.5 11.5t6.5 11.5q14 5 29 7.5t33 0.5q14 -2 30 -1t30 1q9 0 18 1t20 1q5 -1 9.5 -2.5t8.5 -2.5q7 -8 9.5 -17t2.5 -17q0 -12 5 -22.5t15 -22.5q2 -1 5.5 -1.5t6.5 -1.5q5 3 5 5q4 29 3 57.5t0 56.5zM380 208q-8 22 -12 27t-18 10q-5 -9 -6 -18.5t0 -17.5
q0 -9 -1 -18.5t4 -18.5q16 2 23 12t10 24zM262 523q4 4 4.5 7t-3.5 9q-1 -6 -1 -9v-7z" />
    <glyph glyph-name="quotedbl" unicode="&#x22;" horiz-adv-x="520" 
d="M296 816q15 12 29.5 25.5t31.5 27.5q11 6 24.5 10t30.5 6q5 -2 11.5 -2.5t13.5 -2.5l18.5 -13.5t13.5 -19.5q-3 -6 -5 -12.5t-4 -11.5l-41 -39t-27 -50q9 -7 19 -6t17 -3q7 -5 15.5 -8l17.5 -6q2 -3 5.5 -7.5t8.5 -9.5q5 -17 6 -34t-4 -36q3 -17 -3 -32.5t-14 -29.5
q-3 -6 -8 -12t-12 -10q-16 -9 -31.5 -15t-34.5 -5h-28q-8 3 -17 8q-17 4 -27.5 15t-17.5 27q-5 14 -8 28.5t0 28.5q6 30 0 56q-3 16 0 29.5t5 26.5l3.5 9t-0.5 8q0 14 3 28.5t9 31.5zM210 534q-26 -15 -50.5 -15.5t-50.5 0.5q-8 1 -17.5 5.5t-19.5 8.5q-4 3 -7 7t-7 8
q-4 5 -6 10.5t-7 11.5q0 28 -0.5 55.5t6.5 54.5q4 14 5 27t-1 27q3 10 6.5 19t5.5 19q3 16 10 30t21 24q6 5 11.5 11.5t10.5 11.5l21.5 15.5t24.5 15.5q8 2 19.5 1t21.5 -10q11 -11 16.5 -24t0.5 -29l-20.5 -22l-21.5 -23q-10 -8 -13.5 -20t-8.5 -23q3 -6 7.5 -7t7.5 -1
q8 0 16 -2.5t16 -4.5q13 -3 20 -10.5t12 -18.5q6 -13 7.5 -25.5t0.5 -26.5q-2 -20 -6.5 -38t-13.5 -36l-8 -14t-9 -12z" />
    <glyph glyph-name="numbersign" unicode="#" horiz-adv-x="868" 
d="M827 463q-8 -10 -16 -12.5t-16 -2.5q-17 0 -33.5 1t-33.5 1h-18.5t-19.5 -3q-11 -38 -25 -74.5t-25 -76.5q5 -1 7 -1.5t6 -0.5q20 -1 37.5 -2t37.5 -2q24 -2 32.5 -9t13.5 -31q5 -21 6 -40.5t0 -40.5l-2 -12t-3 -11q-6 -8 -12 -10t-13 -2h-23t-25 2h-100l-4 -10l-4 -10
l-12.5 -42.5t-14.5 -43.5q-2 -13 -8 -19q-8 -6 -14 -7t-12 0q-47 7 -90 15q-8 8 -16.5 15t-13.5 20q-2 23 6.5 44t12.5 44q-7 6 -14 8t-15 2h-122l-4 -10.5t-3 -11.5l-16 -51t-17 -50q-1 -7 -4 -12t-5 -8q-8 -6 -15.5 -5.5t-15.5 1.5q-42 6 -81 14q-8 5 -14 10.5t-14 10.5
q-6 13 -4.5 25t4.5 25q3 14 8 29t9 30q-7 3 -14 3.5t-14.5 0.5t-14 1t-12.5 6q-6 6 -8 13t-3 16q-2 18 -2.5 37.5t-2.5 42.5q2 6 5.5 14.5t7.5 15.5q10 8 18.5 11t16.5 3h65q7 7 9 10l21.5 67.5t24.5 67.5q-14 5 -26.5 6.5t-24.5 2.5h-34q-13 0 -20 11l-2 2q-3 3 -3 2l-4 44
l-4 44q0 8 2 16t4 17q14 23 38 24q13 3 30 0h76h16q8 12 12 24.5t7 24.5t7 24t13 22q6 1 13 3t14 0q57 0 110 -25q3 -11 8 -18q-5 -14 -8.5 -27.5t-7.5 -27.5q5 -7 11.5 -6t12.5 0q32 -6 65 -5t67 -3q2 6 4 10t4 9q4 14 7 26.5t7 24.5q2 11 9 24q5 10 13 14t18 6q27 0 59 -8
t58 -22q5 -9 3.5 -18.5t-3.5 -18.5q-5 -13 -8.5 -26.5t-7.5 -26.5q6 -2 9 -2.5t8 -0.5h17t17 -1q23 0 28 -25q2 -10 3.5 -20t3.5 -21q2 -8 2 -16v-15q0 -11 -1 -21.5t-1 -21.5zM477 302l26 75t23 74q1 2 0 3t-1 2q-10 3 -30 5t-42 3t-43 1t-34 -1q-2 -1 -3.5 -1.5t-2.5 -1.5
l-22 -63l-22 -61q-1 -11 -6 -22q4 -2 5 -3.5t3 -1.5q36 -2 72.5 -5t76.5 -3z" />
    <glyph glyph-name="exclam" unicode="!" horiz-adv-x="299" 
d="M48 706q6 1 10 1.5t7 0.5h132q8 0 16 -1.5t16 -9.5q3 -11 2 -23l-2 -25q-4 -27 -4 -54t-1 -53q-2 -33 -5.5 -66t-5.5 -68q-2 -23 -5 -46t-2 -48q0 -14 -2.5 -28t-13.5 -25q-31 -8 -62 -7t-62 5q-11 5 -13.5 13.5t-2.5 20.5v109q-2 30 -1.5 60t-3.5 60q-2 14 -1 26.5
t1 26.5q-2 24 -2 47.5v46.5v17t5 20zM87 209l14.5 3.5t12.5 3.5q18 2 34.5 -2t33.5 -12q13 -8 19.5 -20t8.5 -24q5 -29 1 -56t-23 -53q-8 -11 -18.5 -19.5t-22.5 -10.5q-22 -5 -40.5 -2t-37.5 17q-8 5 -12.5 12.5t-8.5 15.5q-9 24 -10 47.5t7 47.5q4 14 12.5 25.5t29.5 26.5
z" />
    </font>
</defs>
</svg>
