<svg xmlns="http://www.w3.org/2000/svg" viewBox="0 0 70.57 62"><path d="m67.75 5.65h-19.06a22.12 22.12 0 0 1 1.54 2.19l1.27 2h14.84v33.92h-62.11v-33.88h7.32a22.72 22.72 0 0 1 3.28-4.23h-12a2.82 2.82 0 0 0 -2.83 2.82v40.93a2.83 2.83 0 0 0 2.82 2.83h64.93a2.83 2.83 0 0 0 2.82-2.83v-40.93a2.82 2.82 0 0 0 -2.82-2.82zm-23.34 54.59a3.46 3.46 0 0 1 -1.36-2.24l-.45-2.94h-14.6l-.49 2.94a3.42 3.42 0 0 1 -1.35 2.26c-1.22.86-2.16 1.64-1.22 1.74s9.7 0 10.35 0 9.41.13 10.34 0 0-.86-1.22-1.76zm-28.28-47.48a17 17 0 0 1 2.27-2.88 16.43 16.43 0 0 1 11.02-4.88v-2.83a19.32 19.32 0 0 0 -10.35 3.48l-1.18.88-.07.06a19.51 19.51 0 0 0 -4.14 4.74zm25.71-6.26.17.14a16.9 16.9 0 0 1 2 2c0 .06.1.11.14.16.3.37.6.74.88 1.12s.35.51.51.76l2.46-1.45-.06-.09a19.47 19.47 0 0 0 -2.79-3.47 19.24 19.24 0 0 0 -12.91-5.61v2.82a16.49 16.49 0 0 1 8.46 2.77c.39.26.76.58 1.14.85zm19.5 26.2a.89.89 0 0 0 -.43-.89l-12.54-7a.91.91 0 0 0 -.85.07.9.9 0 0 0 -.4.76l1.58 14.3a.87.87 0 0 0 .65.67.9.9 0 0 0 .89-.28l2.58-3.73 4.52 6.74a.9.9 0 0 0 .54.35.87.87 0 0 0 .63-.13l2-1.34a.87.87 0 0 0 .24-1.16l-4.49-6.74 4.41-.94a.91.91 0 0 0 .67-.68zm-16.53-18.7a16.36 16.36 0 0 1 1.81 7.49v.88a3.43 3.43 0 0 1 1.38-.26 3.31 3.31 0 0 1 1.45.33v-1a19.29 19.29 0 0 0 -2.18-8.9zm-34 7.49a19.1 19.1 0 0 0 2.32 9.17l2.45-1.41a16.41 16.41 0 0 1 -.14-15.25l-2.44-1.43a19.08 19.08 0 0 0 -2.18 8.91zm17.9.23-12.61-7.29a15.68 15.68 0 0 0 .18 14.46zm-10.35 3.64a6.65 6.65 0 0 1 -1.24.4c-.19.06-.69.14-.77-.14s.41-.47.6-.52a4 4 0 0 0 .88-.29c.22-.11.69-.2.88 0s-.18.48-.35.55zm5.39-4.87a1.07 1.07 0 1 1 -1.07 1.06 1.07 1.07 0 0 1 1.07-1.06zm-2.94 1.62a1.61 1.61 0 1 1 -1.61-1.61 1.62 1.62 0 0 1 1.61 1.61zm-3.17-5.56a1.07 1.07 0 1 1 -1.06 1.07 1.07 1.07 0 0 1 1.06-1.07zm-1.43 4c.88 0-.12.66-.56.66-1 .05.08-.66.51-.66zm13.23 20.26v-2.81a16.49 16.49 0 0 1 -13.12-7.5l-2.45 1.4a19.34 19.34 0 0 0 15.55 8.88zm0-35a9.85 9.85 0 0 0 -1.26.11h-.33c-.36 0-.71.12-1.06.19h-.18c-.41.09-.82.21-1.21.33l-.19.06-1.07.4-.14.1a15.28 15.28 0 0 0 -2.3 1.21h-.06a16.36 16.36 0 0 0 -2.09 1.61 15.49 15.49 0 0 0 -2.8 3.35l12.63 7.3zm-7.79 7.84a1.61 1.61 0 1 1 1.6-1.61 1.61 1.61 0 0 1 -1.6 1.61zm4.81 2.88a1.07 1.07 0 1 1 1.07-1.06 1.05 1.05 0 0 1 -1.07 1.08zm0-4a1.3 1.3 0 0 0 -.74-.47.37.37 0 0 1 -.28-.26.38.38 0 0 1 .1-.38 1 1 0 0 1 1-.26 2.28 2.28 0 0 1 1.2.78c.38.52-.91 1.05-1.29.59zm1.54-3.19a.83.83 0 0 1 -.07.13.57.57 0 0 1 -.08.13 1 1 0 0 1 -.31.28 1.05 1.05 0 0 1 -.54.18 1 1 0 0 1 -.55-.18 1.06 1.06 0 0 1 -.31-.29l-.14-.12v-.13a1.36 1.36 0 0 1 -.11-.34 1.07 1.07 0 0 1 2.11 0 1.12 1.12 0 0 1 -.12.35zm1.5 13.59-12.5 7.16a15.64 15.64 0 0 0 12.41 7.06zm-2.5 3.83a1.08 1.08 0 0 1 1 .66 1.07 1.07 0 0 1 -1.41 1.39 1.09 1.09 0 0 1 -.65-1 1.06 1.06 0 0 1 1-1.06zm-2.79 2.49c.88 0 0 .88-.51.88-.97-.04-.08-.88.47-.88zm-3.88 2.31a1.07 1.07 0 1 1 1.06-1.07 1.07 1.07 0 0 1 -1.1 1.07zm4.54 2.3a1.59 1.59 0 1 1 1.13-.45 1.6 1.6 0 0 1 -1.15.45zm2.32 2.14c-.88 0 .08-.7.55-.7.89 0-.1.7-.57.7zm16-5.93-12.31-7.14v14.23a15.66 15.66 0 0 0 12.35-7.07zm-10.1 4.84a1.07 1.07 0 1 1 1.06-1.07 1.07 1.07 0 0 1 -1.02 1.09zm.72-4.41a1.6 1.6 0 1 1 1.6-1.61 1.61 1.61 0 0 1 -1.6 1.61zm1.62 2.35c-.67 0 .61-.54.88-.54.7 0-.6.52-.88.52zm4-1.13a1.07 1.07 0 0 1 -1.05-1.07 1.07 1.07 0 1 1 1.05 1zm5.38-2.36v-.36c-.06.11-.1.21-.15.3zm.45 4-.26-2.28-1-.6a16.48 16.48 0 0 1 -13.12 7.52v2.82a19.3 19.3 0 0 0 14.44-7.43zm-.67-6-.09-1.36a3.43 3.43 0 0 1 1.26-3.08c0-.47.07-.94.07-1.42a15.61 15.61 0 0 0 -1.68-7.06l-12.61 7.24 12.46 7.17a14.75 14.75 0 0 0 .65-1.45zm-1-10.48c.89 0-.16.62-.57.62-.81.04.27-.58.67-.58zm-6.64 5.81a1.07 1.07 0 0 1 -.95-1.03 1.07 1.07 0 0 1 2.14 0 1.08 1.08 0 0 1 -1.07 1.08zm3.05-2.11c.67 0-.61.54-.88.54-.69 0 .59-.54.86-.54zm-.62 3.52c-.88 0 0-.81.52-.81.91 0 0 .79-.54.79zm2.81 2.65a1.06 1.06 0 0 1 -1-.64 1.07 1.07 0 0 1 .21-1.17 1.07 1.07 0 1 1 .78 1.82zm.54-4.22a1.61 1.61 0 1 1 1.61-1.6 1.62 1.62 0 0 1 -1.62 1.61zm1.33-12.66a15.69 15.69 0 0 0 -11.8-6.17v14.67l12.63-7.3c-.27-.43-.55-.8-.84-1.19zm-7.73-4.08a1.07 1.07 0 0 1 .79 1.81 1.06 1.06 0 0 1 -1.83-.74 1.07 1.07 0 0 1 1.04-1.07zm-2.33-1c.88 0 .21.74-.36.89h-.14a.49.49 0 0 1 -.17 0c-.56-.15.19-.89.67-.89zm.69 10a1.6 1.6 0 0 1 -1.11-2.79 1.61 1.61 0 0 1 2.75 1.13 1.6 1.6 0 0 1 -1.6 1.6zm1.84-5-.09.14-.09.1a.88.88 0 0 1 -1 .07 1.49 1.49 0 0 0 -.36-.17c-.21 0-.43-.07-.65-.09s-.57-.28-.43-.62a1.33 1.33 0 0 1 .2-.22v-.07l.13-.09h.09.15.31a3.86 3.86 0 0 1 1.61.55.43.43 0 0 1 .14.16v.25zm.68 2.78c-.88 0-.1-.89.5-.89.92 0 .1.89-.5.89zm2.28-1.57a1.07 1.07 0 0 1 -1.06-1.06v-.06a1.06 1.06 0 0 1 .32-.71h.06a.8.8 0 0 1 .27-.17 1.15 1.15 0 0 1 .41-.08 1 1 0 0 1 .4.08.8.8 0 0 1 .27.18h.07a1.05 1.05 0 0 1 .31.71v.06a1.06 1.06 0 0 1 -1 1.06zm1.89-.46c-.67 0 .61-.55.88-.55.67 0-.6.55-.88.55z" fill="#fff" transform="translate(0 -.06)"/></svg>