<svg viewBox="0 0 511.99 511.96" xmlns="http://www.w3.org/2000/svg"><path d="m512 196.23c0-.18-.09-.34-.1-.51a8.66 8.66 0 0 0 -.35-1.74 8.45 8.45 0 0 0 -.49-1.47 8.36 8.36 0 0 0 -.85-1.28 8.79 8.79 0 0 0 -1.16-1.35c-.14-.12-.2-.28-.34-.39l-82-63.74v-66.06a25.6 25.6 0 0 0 -25.6-25.6h-92.53l-37-28.75a25.34 25.34 0 0 0 -31.12 0l-37 28.75h-92.54a25.6 25.6 0 0 0 -25.6 25.6v66.06l-82 63.74c-.14.11-.2.27-.34.39a8.79 8.79 0 0 0 -1.16 1.35 7.57 7.57 0 0 0 -.82 1.28 9.36 9.36 0 0 0 -.55 1.49 8.38 8.38 0 0 0 -.35 1.71c0 .17-.1.32-.1.5v290.15a25.13 25.13 0 0 0 1.42 8.06 8.46 8.46 0 0 0 9.39 12.8 25.36 25.36 0 0 0 14.78 4.78h460.8a25.44 25.44 0 0 0 14.82-4.8 8.6 8.6 0 0 0 2.25.36 8.46 8.46 0 0 0 7.11-13.1 25.13 25.13 0 0 0 1.42-8.06zm-261.13-177.42a8.18 8.18 0 0 1 10.18 0l19.69 15.28h-49.5zm-223.16 476.08 223.16-173.34a8.19 8.19 0 0 1 10.17 0l223.23 173.34zm467.21-13.33-223.38-173.49a25.34 25.34 0 0 0 -31.1 0l-223.38 173.49v-272.34l139.83 108.59a8.54 8.54 0 1 0 10.92-13.14c-.15-.12-.3-.24-.46-.35l-142.06-110.32 60-46.64v65.93a8.54 8.54 0 1 0 17.07.58 5.61 5.61 0 0 0 0-.58v-153.6a8.53 8.53 0 0 1 8.53-8.53h290.17a8.53 8.53 0 0 1 8.53 8.53v153.6a8.54 8.54 0 1 0 17.07.58 5.61 5.61 0 0 0 0-.58v-65.93l60 46.64-142.29 110.51a8.54 8.54 0 0 0 10.47 13.49l140.08-108.78zm-238.17-382c-31.93 0-56.14 25.09-56.14 55.63s23.82 55.38 56.52 55.38a62.11 62.11 0 0 0 33.58-9.5l-2.53-4.07a57.06 57.06 0 0 1 -31.05 8.49c-30.16 0-51.2-22-51.2-50.31 0-28 21.29-50.56 50.82-50.56 28.89 0 49.3 20.78 49.3 44.22 0 16.86-6.72 25.73-15 25.73-5.19 0-8.23-3.29-8.23-7.48a41.47 41.47 0 0 1 .5-5.57l5.83-32.7-19.64-3-1.51 7.69a19.3 19.3 0 0 0 -17-9.38c-15.08 0-28 14.83-28 33 0 15.46 10 25.47 23.19 25.47 7.86 0 13.81-3.8 18.63-9.37 3 5.19 8.87 9.63 19.52 9.63 13.81 0 27-11 27-34 0-26-23.15-49.31-54.58-49.31zm-4.18 65.9c-5.32 0-9.25-3.55-9.25-9.89 0-8 5.32-14.32 12.16-14.32 5.33 0 9.25 3.68 9.25 9.63 0 8.08-5.45 14.57-12.16 14.57z" fill="#fff"/></svg>