<svg height="23" viewBox="0 0 15 23" width="15" xmlns="http://www.w3.org/2000/svg"><path d="m277.485395 20.2280702c-2.063684 0-3.74272-1.6789913-3.74272-3.7426755s1.679036-3.7427193 3.74272-3.7427193 3.742675 1.6790351 3.742675 3.7427193-1.678991 3.7426755-3.742675 3.7426755zm0-11.2280702c-4.127413 0-7.485395 3.3580263-7.485395 7.4853947 0 1.2390351.309737 2.4675439.898684 3.557193l6.177325 11.1723246c.082237.1489473.238947.2412281.409386.2412281.170394 0 .327105-.0922808.409342-.2412281l6.179649-11.1759649c.586623-1.0860088.89636-2.3145176.89636-3.5535527 0-4.1273684-3.357983-7.4853947-7.485351-7.4853947z" fill="#e11d38" fill-rule="evenodd" transform="translate(-270 -9)"/></svg>