<svg viewBox="0 0 32.4 35.32" xmlns="http://www.w3.org/2000/svg"><path d="m6.8 5.92a16.33 16.33 0 0 0 -5.5 6.7l13.7 5.5zm-5.8 7.6a16.88 16.88 0 0 0 -1 5.6 13.58 13.58 0 0 0 .3 2.88l14.2-3.1zm24.7 18.7a15.59 15.59 0 0 0 5.3-6.6l-13.3-5.4zm.9-25.6-9.1 11.6 14.4-3.1a15.87 15.87 0 0 0 -5.3-8.5zm-26.1 16.38a15.51 15.51 0 0 0 5.3 8.5l9.1-11.7zm15.2 12.2v-14.68l-9.1 11.6a16.07 16.07 0 0 0 9.1 3.1zm16.4-19.1-14.2 3.1 13.5 5.4a16.75 16.75 0 0 0 1-5.5 15.26 15.26 0 0 0 -.3-2.98zm-15.4 19.22a16.46 16.46 0 0 0 8.2-2.5l-8.2-12.2zm1.08-35.32v14.6l9-11.5a15.76 15.76 0 0 0 -9-3.1zm-2.08 17.32v-14.4a16.66 16.66 0 0 0 -8 2.4z" fill="#e11d39"/></svg>