<svg viewBox="0 0 40.4 43.4" xmlns="http://www.w3.org/2000/svg"><path d="m21.6 0v18.3l9.5-15.7a20.12 20.12 0 0 0 -9.5-2.6zm-2 43.4v-18.6l-9.6 15.8a19.57 19.57 0 0 0 9.6 2.8zm-17-30.2a20.85 20.85 0 0 0 -2.6 9.6h18.4zm-2.6 10.6a20 20 0 0 0 2.6 9.4l15.9-9.4zm30.9 16.5a22.87 22.87 0 0 0 6.3-6.1l-15.5-9.4zm-27.8-6.3a21.78 21.78 0 0 0 6 6.1l9.2-15.1zm34.6-.6a20.59 20.59 0 0 0 2.7-9.6h-18.5zm-18.1-12.1v-18.3a19.65 19.65 0 0 0 -9.3 2.6zm-10.1-15.2a20 20 0 0 0 -6.3 6.3l15.6 9.5zm21.5 0-9.7 16 16.1-9.5a20.89 20.89 0 0 0 -6.4-6.5zm9.4 16.7a20.43 20.43 0 0 0 -2.5-9.3l-15.8 9.3zm-19.8 20.6a20 20 0 0 0 9.4-2.6l-9.4-15.9z" fill="#e11d39"/></svg>