<svg viewBox="0 0 32.4 35.32" xmlns="http://www.w3.org/2000/svg"><path d="m6.8 5.92a16.39 16.39 0 0 0 -5.5 6.7l13.7 5.5zm-5.8 7.6a16.73 16.73 0 0 0 -1 5.6 13.94 13.94 0 0 0 .3 2.88l14.2-3.1zm24.7 18.7a15.56 15.56 0 0 0 5.3-6.6l-13.3-5.4zm.9-25.6-9.1 11.6 14.4-3.1a15.86 15.86 0 0 0 -5.3-8.5zm-26.1 16.38a15.52 15.52 0 0 0 5.3 8.5l9.1-11.7zm15.2 12.2v-14.68l-9.1 11.6a16.06 16.06 0 0 0 9.1 3.1zm16.4-19.1-14.2 3.1 13.5 5.4a16.61 16.61 0 0 0 1-5.5 14.91 14.91 0 0 0 -.3-3zm-15.4 19.22a16.42 16.42 0 0 0 8.2-2.5l-8.2-12.2zm1.08-35.32v14.6l9-11.5a15.72 15.72 0 0 0 -9-3.1zm-2.08 17.32v-14.4a16.64 16.64 0 0 0 -8 2.4z" fill="#fff"/></svg>