<svg viewBox="0 0 40.4 43.4" xmlns="http://www.w3.org/2000/svg"><path d="m21.6 0v18.3l9.5-15.7a20.17 20.17 0 0 0 -9.5-2.6zm-2 43.4v-18.6l-9.6 15.8a19.58 19.58 0 0 0 9.6 2.8zm-17-30.2a20.83 20.83 0 0 0 -2.6 9.6h18.4zm-2.6 10.6a20 20 0 0 0 2.6 9.4l15.9-9.4zm30.9 16.5a23 23 0 0 0 6.3-6.1l-15.5-9.4zm-27.8-6.3a21.92 21.92 0 0 0 6 6.1l9.2-15.1zm34.6-.6a20.64 20.64 0 0 0 2.7-9.6h-18.5zm-18.1-12.1v-18.3a19.63 19.63 0 0 0 -9.3 2.6zm-10.1-15.2a20 20 0 0 0 -6.3 6.3l15.6 9.5zm21.5 0-9.7 16 16.1-9.5a20.9 20.9 0 0 0 -6.4-6.5zm9.4 16.7a20.49 20.49 0 0 0 -2.5-9.3l-15.8 9.3zm-19.8 20.6a20 20 0 0 0 9.4-2.6l-9.4-15.9z" fill="#fff"/></svg>