<svg height="24" viewBox="0 0 24 24" width="24" xmlns="http://www.w3.org/2000/svg"><path d="m655.461106 165.303085-5.740338-5.740338c.865835-1.420274 1.36407-3.091185 1.36407-4.876021 0-5.190457-4.497787-9.686726-9.688244-9.686726-5.190456-.001519-9.396594 4.206138-9.396594 9.396595 0 5.188937 4.497788 9.686725 9.686725 9.686725 1.727114 0 3.341822-.469374 4.731716-1.282044l5.770718 5.773756c.565071.563552 1.481034.563552 2.044587 0l1.432426-1.432427c.563552-.563552.358486-1.275968-.205066-1.83952zm-20.568911-10.90649c0-3.593977 2.911941-6.505919 6.504399-6.505919 3.593977 0 6.79605 3.200553 6.79605 6.79605 0 3.592458-2.913461 6.505918-6.505919 6.505918-3.593977-.001519-6.79453-3.203591-6.79453-6.796049z" fill="#e11d38" transform="translate(-632 -145)"/></svg>