<svg viewBox="0 0 18 18" xmlns="http://www.w3.org/2000/svg"><path d="m18 5.29a6.81 6.81 0 0 0 -.42-2.19 4.43 4.43 0 0 0 -1-1.59 4.43 4.43 0 0 0 -1.59-1 6.81 6.81 0 0 0 -2.28-.46c-1 0-1.27 0-3.71 0s-2.75-.05-3.71 0a6.81 6.81 0 0 0 -2.19.42 4.43 4.43 0 0 0 -1.59 1 4.43 4.43 0 0 0 -1 1.59 6.81 6.81 0 0 0 -.46 2.23c-.05.96-.05 1.27-.05 3.71s0 2.75.05 3.71a6.81 6.81 0 0 0 .42 2.19 4.43 4.43 0 0 0 1 1.59 4.43 4.43 0 0 0 1.59 1 6.81 6.81 0 0 0 2.23.51c1 0 1.27.05 3.71.05s2.75 0 3.71-.05a6.81 6.81 0 0 0 2.19-.42 4.66 4.66 0 0 0 2.63-2.63 6.81 6.81 0 0 0 .47-2.24c0-1 .05-1.27.05-3.71s-.05-2.75-.05-3.71zm-1.62 7.35a5.3 5.3 0 0 1 -.38 1.67 3.06 3.06 0 0 1 -1.69 1.69 5.3 5.3 0 0 1 -1.67.31c-1 0-1.24.05-3.64.05s-2.69 0-3.64-.05a5.3 5.3 0 0 1 -1.67-.31 2.85 2.85 0 0 1 -1-.68 2.85 2.85 0 0 1 -.68-1 5.3 5.3 0 0 1 -.31-1.67c0-1 0-1.24 0-3.64s0-2.69 0-3.64a5.3 5.3 0 0 1 .3-1.68 2.85 2.85 0 0 1 .68-1 2.85 2.85 0 0 1 1-.68 5.3 5.3 0 0 1 1.67-.31h3.64s2.69 0 3.64 0a5.3 5.3 0 0 1 1.68.3 2.85 2.85 0 0 1 1 .68 2.85 2.85 0 0 1 .68 1 5.3 5.3 0 0 1 .31 1.67c0 .95.05 1.24.05 3.64s.02 2.7-.02 3.65zm-7.38-8.26a4.62 4.62 0 1 0 4.62 4.62 4.62 4.62 0 0 0 -4.62-4.62zm0 7.62a3 3 0 1 1 3-3 3 3 0 0 1 -3 3zm5.88-7.8a1.08 1.08 0 1 1 -1.08-1.08 1.08 1.08 0 0 1 1.08 1.08z" fill="#fff"/></svg>