<svg viewBox="0 0 22 22" xmlns="http://www.w3.org/2000/svg"><path d="m18.78 3.22a11 11 0 0 0 -16 15.07l.11.09a5.21 5.21 0 0 1 -2.28 2.56.43.43 0 0 0 -.19.58.41.41 0 0 0 .31.23 6.25 6.25 0 0 0 4.68-1.28 11 11 0 0 0 13.37-17.25zm-4.16 12.49c-.24.24-.49.47-.72.73a1.48 1.48 0 0 1 -1.23.47 5 5 0 0 1 -2-.58 10.57 10.57 0 0 1 -3.53-2.76 9.9 9.9 0 0 1 -1.69-2.87 3.69 3.69 0 0 1 -.28-1.6 1.27 1.27 0 0 1 .4-.88c.28-.26.53-.53.8-.8a.77.77 0 0 1 1.15 0l.64.65c.22.21.42.41.63.63a.76.76 0 0 1 0 1.17c-.26.26-.52.53-.79.78a.16.16 0 0 0 0 .21 4.69 4.69 0 0 0 .67 1.14 8 8 0 0 0 2 1.81c.17.11.35.18.52.28a.15.15 0 0 0 .22 0c.26-.27.53-.53.8-.8a.76.76 0 0 1 1.14 0l1.28 1.28a.78.78 0 0 1 0 1.18zm-4-7.11.13-1a4.38 4.38 0 0 1 3.7 3.59l-1 .17a3.4 3.4 0 0 0 -2.88-2.76zm5.38 2.61a6.26 6.26 0 0 0 -5.3-5.14l.13-1a7.26 7.26 0 0 1 6.17 5.93z" fill="#e11d38"/></svg>