<svg fill="none" height="28" viewBox="0 0 27 28" width="27" xmlns="http://www.w3.org/2000/svg"><g fill="#000"><path d="m10.5705 27.0001c-1.83751 0-3.34089-1.5034-3.34089-3.3409s1.50338-3.3408 3.34089-3.3408c1.8375 0 3.3408 1.5033 3.3408 3.3408 0 1.8374-1.5034 3.3409-3.3408 3.3409zm0-4.6772c-.73502 0-1.33637.6013-1.33637 1.3363s.60135 1.3364 1.33637 1.3364c.735 0 1.3363-.6014 1.3363-1.3364s-.6014-1.3363-1.3363-1.3363z"/><path clip-rule="evenodd" d="m10.5705 20.8184c-1.56137 0-2.84089 1.2795-2.84089 2.8408 0 1.5614 1.27952 2.8409 2.84089 2.8409 1.5612 0 2.8408-1.2796 2.8408-2.8409m-6.68169 0c0-2.1136 1.72723-3.8408 3.84089-3.8408 2.1136 0 3.8408 1.7272 3.8408 3.8408 0 2.1136-1.7272 3.8409-3.8408 3.8409-2.11366 0-3.84089-1.7272-3.84089-3.8409zm3.84089-2.8408c1.5613 0 2.8408 1.2795 2.8408 2.8408zm-1.83637 2.8408c0-1.0111.82521-1.8363 1.83637-1.8363 1.011 0 1.8363.8252 1.8363 1.8363 0 1.0112-.8252 1.8364-1.8363 1.8364-1.01116 0-1.83637-.8252-1.83637-1.8364zm1.83637-.8363c-.4589 0-.83637.3775-.83637.8363 0 .4589.37747.8364.83637.8364.4588 0 .8363-.3775.8363-.8364 0-.4588-.3775-.8363-.8363-.8363z" fill-rule="evenodd"/><path d="m20.4565 27.0001c-1.8375 0-3.3409-1.5034-3.3409-3.3409s1.5034-3.3408 3.3409-3.3408 3.3408 1.5033 3.3408 3.3408c0 1.8374-1.5033 3.3409-3.3408 3.3409zm0-4.6772c-.735 0-1.3364.6013-1.3364 1.3363s.6014 1.3364 1.3364 1.3364 1.3363-.6014 1.3363-1.3364-.6013-1.3363-1.3363-1.3363z"/><path clip-rule="evenodd" d="m20.4565 20.8184c-1.5614 0-2.8409 1.2795-2.8409 2.8408 0 1.5614 1.2795 2.8409 2.8409 2.8409 1.5613 0 2.8408-1.2796 2.8408-2.8409s-1.2795-2.8408-2.8408-2.8408zm-3.8409 2.8408c0-2.1136 1.7272-3.8408 3.8409-3.8408 2.1136 0 3.8408 1.7272 3.8408 3.8408s-1.7272 3.8409-3.8408 3.8409c-2.1137 0-3.8409-1.7272-3.8409-3.8409zm2.0045 0c0-1.0111.8252-1.8363 1.8364-1.8363 1.0111 0 1.8363.8252 1.8363 1.8363 0 1.0112-.8252 1.8364-1.8363 1.8364-1.0112 0-1.8364-.8252-1.8364-1.8364zm1.8364-.8363c-.4589 0-.8364.3775-.8364.8363 0 .4589.3775.8364.8364.8364.4588 0 .8363-.3775.8363-.8364 0-.4588-.3775-.8363-.8363-.8363z" fill-rule="evenodd"/><path d="m26.2399 7.0556c-.2004-.23385-.4677-.3675-.7683-.3675h-17.53954l-.93546-4.61038c-.06683-.40088-.40088-.70155-.80182-.80182l-4.00897-.734995c-.53453-.100203-1.06912.267295-1.16932.801815-.100202.53453.2673 1.06905.80182 1.16932l3.34086.60135 2.93998 14.86681c.10021.4677.50115.8018.96885.8018h14.0316c.4677 0 .8687-.334.9689-.7684l2.3385-10.12274c.1002-.26736.0334-.60141-.1671-.83526zm-3.9087 9.7553h-12.39462l-1.60364-8.11828h15.90246z"/><path clip-rule="evenodd" d="m2.27684.0493692c.00036.000067.00072.000134.00108.0002012l4.02268.7375066.01546.003866c.54712.136824 1.06211.561877 1.17209 1.195107l.85263 4.20216h17.13072c.4608 0 .8621.20859 1.148.54207.2997.34956.4196.85543.2683 1.301l-2.3322 10.09492s.0001-.0001 0 0c-.1515.6564-.7507 1.1559-1.456 1.1559h-14.03162c-.71408 0-1.31041-.5093-1.45775-1.197l-.00166-.0078-2.87374-14.53215-3.00872-.54156c-.804585-.15093-1.352402-.94564-1.201075-1.75289.150781-.804322.944985-1.351962 1.751805-1.2013308zm-.18317.9830808c-.26186-.049089-.5362.13814-.58576.40251-.04898.26132.13741.53513.40109.58548l3.67448.6614 3.00528 15.19696c.05417.2459.25889.4033.47922.4033h14.03162c.2301 0 .4327-.1686.4816-.3808l2.3461-10.15497.0115-.03084c.0303-.0808.0149-.22545-.0785-.33437-.115-.13422-.2481-.19291-.3888-.19291h-17.94819l-1.01849-5.01954-.00143-.00863c-.02673-.1603-.17254-.32974-.41643-.39546l-3.99133-.73177zm5.63082 7.16027h17.14181l-2.1389 9.11828h-13.20173zm1.21686 1 1.40615 7.11828h11.5874l1.6697-7.11828z" fill-rule="evenodd"/></g></svg>